<?xml version="1.0" encoding="UTF-8"?>
<svg viewBox="0 0 1219.9526 1219.5085" xmlns="http://www.w3.org/2000/svg">
 <g transform="translate(135.07 359.68)">
  <path d="m730.33 467.58c287.02-337.05-184.09 532.8 147.97 240.02s-589.94 65.659-219.6-176.87c272.87 414.3-141.96 68.996-86.515 40.413 423.67-128.37-442.92 348.69-5.284 281.92s-531.79-263.71-89.112-267.52-523.21 209.78-84.497 269.01-435.95-402.85-10.133-281.79c-134.42 477.53-145.11-62.106-87.197-38.919 374.46 236.13-553.57-106.39-216.52 180.63s-148.95-574.6 143.82-242.53c-371.26 329.05-88.497-130.7-52.314-79.883 187.36 401.09-408.18-388.78-279.8 34.891s185.35-563.91 252.12-126.28-282.11-488.03-278.3-45.352 336.71-488.85 277.48-50.133-133.19-547.74-254.25-121.92 460.8-374.18 280.36 30.073c-453.54-201.01 82.125-134.79 50.932-80.771-287.02 337.05 184.09-532.8-147.97-240.02s589.94-65.659 219.6 176.87c-272.87-414.3 141.96-68.996 86.515-40.413-423.67 128.37 442.92-348.69 5.284-281.92s531.79 263.71 89.112 267.52 523.21-209.78 84.497-269.01 435.95 402.85 10.133 281.79c134.42-477.53 145.11 62.106 87.197 38.919-374.46-236.13 553.57 106.39 216.52-180.63s148.95 574.6-143.82 242.53c371.25-329.05 88.497 130.7 52.314 79.883-187.36-401.09 408.18 388.78 279.8-34.891s-185.35 563.91-252.12 126.28 282.11 488.03 278.3 45.352-336.71 488.85-277.48 50.133 133.19 547.74 254.25 121.92-460.8 374.18-280.36-30.073c453.54 201.01-82.125 134.79-50.932 80.771z" fill="#c8edff"/>
  <path d="m590.01-349.09c-45.786 17.466-84.715 48.817-111.6 88.932 17.078 16.921 37.271 34.84 58.255 52.79 114.88-53.979 213.4-111.88 53.349-141.72zm-53.349 141.72c-21.801 10.244-44.103 20.352-65.422 30.093-8.2551-3.6017-16.607-7.2625-25.086-10.954-4.8292 18.77-7.3962 38.435-7.3962 58.712 0 129.77 105.2 234.98 234.98 234.98 116.65 0 213.41-85.002 231.8-196.44-15.281-3.2894-48.788 12.632-109.39 60.517-7.1751-23.01-14.834-47.092-21.985-70.887-29.962-3.9763-60.568-8.6351-88.856-12.581 9.3584-109.03-16.301-265.53-91.83-45.673-18.473-15.476-37.929-31.609-56.806-47.758zm237.49 106.01c50.649 6.7217 99.387 11.468 131.86 7.4724 1.7676-11.619 2.6942-23.521 2.6942-35.634 0-19.396-2.3807-38.218-6.8116-56.247-8.9703-8.7521-19.391-18.243-31.516-28.568-158.27-134.78-135.07-16.27-96.227 112.98z" fill="#ffd000"/>
  <path transform="translate(202 19.429)" d="m232.86 478.79c0 39.843-32.299 72.143-72.143 72.143s-72.143-32.299-72.143-72.143 32.299-72.143 72.143-72.143 72.143 32.299 72.143 72.143z" fill="#005e90"/>
  <path d="m362.71 514.45v197.26" fill="none" stroke="#005e90" stroke-width="44.8"/>
  <path d="m365.57 672.51-60 152.86" fill="none" stroke="#005e90" stroke-width="50"/>
  <path d="m364.14 626.65 150-80" fill="none" stroke="#005e90" stroke-width="50"/>
  <path d="m361.29 672.51 60 152.86" fill="none" stroke="#005e90" stroke-width="50"/>
  <path d="m362 636.65 141.43-14.286" fill="none" stroke="#005e90" stroke-width="50"/>
  <path d="m472.97 617.71c130.86-183.19 225.19-379.44 319.21-575.79" fill="none" stroke="#005e90" stroke-width="3.5"/>
  <path d="m804.3 110.61c-5.7114 17.863 5.3082 35.202 17.046 47.869 7.7588 8.373 22.388 15.669 22.516 25.823 0.18798 14.824-15.257 34.008-6.6443 50.3 7.1564 13.537 24.097 14.305 34.323 24.731 13.744 14.013 19.849 38.865 5.4366 53.426-9.2929 9.3887-14.24 23.203-9.3179 35.634" fill="none" stroke="#005e90" stroke-width="3.5"/>
  <path d="m816.13 152.09-19.118 2.165 16.489 16.484 4.65-35.708 15.28 14.08-17.301 2.9798z" fill="#005e90" stroke="#005e90" stroke-width=".88348"/>
  <path d="m837.2 210.69-11.689-15.283-5.6567 22.619 33.016-14.377-4.2166 20.345-11.453-13.305z" fill="#005e90" stroke="#005e90" stroke-width=".88348"/>
  <path d="m867.64 255.88-18.287 5.9811 19.478 12.815-2.6566-35.912 17.808 10.704-16.342 6.4121z" fill="#005e90" stroke="#005e90" stroke-width=".88348"/>
  <path d="m729.92-114.32 136.23 85.936-61.214 141.17-132.93-76.047 57.918-151.06z" fill="#005e90"/>
 </g>
</svg>
