<?xml version='1.0' encoding='utf-8'?>
<svg xmlns="http://www.w3.org/2000/svg" version="1.1" id="Layer_1" x="0px" y="0px" viewBox="0 0 4500 5400" style="enable-background:new 0 0 4500 5400;"> <style type="text/css"> .st0{fill:none;} .st1{fill:#FFE0B2;} .st2{fill:#212121;} .st3{fill:#FF6D00;} .st4{fill:#FF9100;} .st5{fill:#FFD180;} .st6{fill:#FFAB40;} .st7{fill:#FFF3E0;} .st8{fill:#FFCC80;} .st9{fill:#FFB74D;} </style> <g> <path class="st0" d="M1794.8,2775c-2.3-1.6-4.7-3.3-7-4.9c0,0,0,0,0,0C1790.2,2771.7,1792.5,2773.4,1794.8,2775z"/> <path class="st0" d="M1784.4,2768.1c-4.4-2.8-8.7-5.6-13.3-8.1C1775.6,2762.5,1780,2765.3,1784.4,2768.1 C1784.4,2768.1,1784.4,2768.1,1784.4,2768.1z"/> <path class="st0" d="M749.5,2063.9c-1.5-8.6-3-16.7-4.4-24C746.5,2047.2,748,2055.4,749.5,2063.9z"/> <path class="st0" d="M1611.2,2607.4c-1.3-2.3-2.9-4.3-4.3-6.6C1608.3,2603,1609.9,2605,1611.2,2607.4 C1611.2,2607.4,1611.2,2607.4,1611.2,2607.4z"/> <path class="st0" d="M1582,2571.6c-1.6-1.3-3-2.7-4.7-3.9C1579,2569,1580.4,2570.3,1582,2571.6L1582,2571.6z"/> <path class="st0" d="M1577.2,2567.7c-3.8-2.8-7.9-5.4-12.3-7.9c0,0,0,0,0,0C1569.4,2562.3,1573.5,2565,1577.2,2567.7z"/> <path class="st0" d="M758.2,2133.2c0.7,9.6,1,19.3,1.1,28.9C759.2,2152.5,758.9,2142.9,758.2,2133.2z"/> <path class="st0" d="M718.6,1639.9C718.6,1639.9,718.6,1639.9,718.6,1639.9c0,0.1,0.1,0.1,0.1,0.2c0,0,0,0,0,0 C718.7,1640,718.6,1640,718.6,1639.9z"/> <path class="st0" d="M532.5,1298.4c-0.9-1-1.5-2.1-2.2-3.2C531.1,1296.3,531.7,1297.4,532.5,1298.4z"/> <path class="st0" d="M722.9,1646.6C722.9,1646.6,722.9,1646.6,722.9,1646.6c4.8,6,10.3,11.5,16.4,16.5c0.1,0.1,0.2,0.3,0.4,0.4 C733.3,1658.5,727.7,1652.8,722.9,1646.6z"/> <path class="st0" d="M521.9,1278.4c-0.4-1.5-0.6-3-0.8-4.6C521.3,1275.4,521.5,1276.9,521.9,1278.4z"/> <path class="st0" d="M526,1288.8c-0.7-1.3-1.2-2.7-1.7-4.1C524.9,1286.1,525.3,1287.5,526,1288.8z"/> <polygon class="st0" points="646.2,2538.6 646.2,2538.6 651.6,2543.7 "/> <path class="st0" d="M3835.9,3143.4c-3.5,11-7.5,21.8-12.6,32.3C3828.4,3165.2,3832.4,3154.3,3835.9,3143.4z"/> <path class="st0" d="M758.1,2131.8c-0.8-10.3-1.9-20.5-3.1-30.4C756.2,2111.3,757.3,2121.4,758.1,2131.8z"/> <path class="st0" d="M2447.2,2475.6c-1.6,0.6-3.3,1.2-4.9,1.8c-8.2,2.8-16.5,5.2-24.8,7.1c8.3-1.9,16.6-4.3,24.8-7.1 C2444,2476.8,2445.6,2476.2,2447.2,2475.6z"/> <path class="st0" d="M3844.3,3107.4c-1.4,9-3.4,17.9-5.8,26.7C3841,3125.3,3842.9,3116.4,3844.3,3107.4z"/> <path class="st0" d="M753.8,2092.5c-1-7.2-2-14.2-3.1-20.9C751.8,2078.3,752.9,2085.3,753.8,2092.5z"/> <g> <path class="st1" d="M839.2,1841.3c-1-14-3.4-28.5-7.6-43.7c-8.6-32-23.6-59.2-41.1-82.1c-7.2-9.4-14.7-18.1-22.5-26.1 c-0.4-0.4-0.7-0.8-1-1.1c-9-9.2-18.3-17.4-27.3-24.7c-0.1-0.1-0.2-0.3-0.4-0.4c-6.1-5-11.6-10.5-16.4-16.5 c-1.6-2.1-2.7-4.4-4.2-6.6c0-0.1-0.1-0.1-0.1-0.2c0,0,0,0,0,0c0,0,0,0,0,0c-0.2-0.3-0.4-0.7-0.6-1c-2.6-3.9-5.4-7.7-7.4-11.8 c-1.3-2.8-2-5.8-3.1-8.7c-0.5-1.3-0.9-2.5-1.3-3.8c-1-3-2.4-6-3.1-9.1c-0.7-3.2-0.7-6.4-1.1-9.7c-0.3-2.4-0.6-4.9-0.7-7.3 c-0.1-2.2-0.7-4.4-0.7-6.6c0,0,0,0,0,0c0.2-10.3,2-20.7,5.6-30.8c7.1-20.1,12.4-43.9,12.4-70.9c0-18.4-2.5-38.3-8.5-59.3 c-2.6-9.2-6.6-18.1-11.1-27c-7.5-14.8-17-29.2-28.1-42.9c-2-2.3-4.4-4.8-6.4-7.1l-40.6,38.2c16.6,20.7,30.1,42.8,37.2,66 c1.4,4.6,2.4,9.1,3.4,13.6c1,4.6,1.9,9,2.5,13.5c0.2,1.5,0.5,3,0.7,4.5c1.1,8.3,1.7,16.3,1.7,24.1c0.2,16.5-1.8,31.7-5,45.5 c-1.7,7.2-3.6,14.2-5.9,20.6c-4.8,13.9-6,28.2-4.1,42.2c0.8,5.6,2.1,11.1,3.8,16.5c5.9,17.9,17.1,34.4,32.8,47.1 c3.1,2.5,6.2,5.2,9.3,7.9c1.8,1.6,3.6,3.1,5.4,4.8c0.1,0.1,0.2,0.2,0.3,0.2c4.2,3.8,8.3,7.9,12.4,12.1c0,0,0,0,0,0c0,0,0,0,0,0 c25,25.8,48.4,59.3,60.2,101.4c3.9,14.3,6.1,27.8,7.3,40.9l51.4,48.1c1.4-9.6,2.3-19.8,2.4-30.4 C840,1854.4,839.8,1847.9,839.2,1841.3z"/> <path class="st1" d="M612.7,2507.1c-8.6,13.3-19.1,27.4-31.8,42.8c-7.8,9.2-15.9,17.2-23.7,24.1c-20.3,17.5-29.5,41.7-27.4,65.1 c-0.2-2.2-0.7-4.3-0.7-6.4v278.9c0,18.9,7.5,37.7,23.2,52.4l5.1,4.8v-5.4v-37.3V2804v-114.1c0.1-27.2,10.1-50.1,29.9-67.1 c8.6-7.4,17.1-15.9,25.4-26c11.9-14,21.7-27,30.1-39.4c1.1-1.6,2.4-3.3,3.4-4.9c0.3-0.5,0.7-1,1-1.5c1.7-2.5,2.9-4.8,4.4-7.4 l-5.4-5.1L612.7,2507.1z"/> </g> <g> <path class="st2" d="M2313.2,2285.3c0-0.1,0-0.1,0-0.2C2313.2,2285.1,2313.2,2285.2,2313.2,2285.3 C2313.2,2285.3,2313.2,2285.3,2313.2,2285.3c0,2,0.3,4,0.6,5.9C2313.5,2289.2,2313.2,2287.2,2313.2,2285.3L2313.2,2285.3z"/> <path class="st2" d="M2414,2266.6c-2.4-6-6.4-11.3-11.5-16.1c-5.1-5.1-11-8.5-17.4-10.8c-6.4-2.3-13-3.4-19.8-3.7 c-1.2,0-2.3,0.3-3.5,0.4c0,0,0,0,0,0c0,0,0,0,0,0c-5.6,0.5-11.1,1.4-16.3,3.3c-4.9,1.8-9.5,4.5-13.7,7.9c-1.2,1-2.5,1.7-3.7,2.9 c-2.3,2.2-4.3,4.5-6.1,6.9c-0.2,0.3-0.5,0.5-0.6,0.7c-1.9,2.7-3.5,5.5-4.7,8.5c-1.1,2.7-1.9,5.4-2.5,8.1c-0.6,2.7-0.9,5.4-1,8.2v0 c0,0.8,0,1.6,0,2.4c0,2.1,0.3,4.1,0.6,6.2c0-0.1,0-0.1,0-0.2c0.1,1.1,0.1,2.2,0.3,3.4c0,0,0,0,0,0c0.6,3.1,1.5,6.1,2.7,9.1 c0,0,0,0,0,0c1.4,3.1,3.1,6.1,5.1,8.9c0,0,0,0,0,0c1.1,1.6,2.5,3,3.8,4.4c0.8,0.9,1.4,1.8,2.3,2.7c0.1,0.1,0.2,0.2,0.2,0.3 c5.1,4.8,11,8.5,17.4,10.8c6.4,2.3,13,3.4,19.6,3.4c6.6,0,13-1.1,19.6-3.4c3.2-1.1,6.2-2.6,9.1-4.5c2.9-1.8,5.6-3.9,8.3-6.4 c0.1-0.1,0.2-0.2,0.2-0.3c2.4-2.3,4.6-4.8,6.4-7.4c0.2-0.3,0.3-0.7,0.5-1c1.6-2.4,3-4.9,4.1-7.6c2.7-6,3.9-12.2,3.9-18.4 c0-0.8,0-1.6,0-2.4c-0.1-2.8-0.4-5.5-1-8.2C2415.9,2272,2415,2269.3,2414,2266.6z"/> <polygon class="st2" points="2321.2,2682.3 2321.2,2682.3 2257.9,2741.9 2246.1,2753 2221.2,2776.4 2214.5,2782.7 2048.4,2938.9 2080,2968.6 2252.7,2806.1 2255.3,2803.7 2301.7,2760 2321.2,2741.7 2352.8,2712 2350.9,2710.2 "/> <path class="st2" d="M2624.1,2190.3c-13.5-32-33.5-60.5-60.4-85.8c-26.7-25.1-57.3-44.1-91.3-56.6 c-33.8-12.4-68.5-18.9-103.7-18.9c-2.3,0-4.6,0.2-6.9,0.3c0,0,0,0,0,0c-3.9,0.1-7.8,0.2-11.7,0.5c-6.1,0.5-12.2,1.2-18.4,2 c8.1-8.9,13.8-17.9,18.4-27c1.4-2.7,3.1-5.4,4.2-8.2c2.5-6.7,4.4-13.2,5.7-19.6c0.4-2.1,0.4-4.2,0.6-6.3c0.6-4.4,1.3-8.8,1.2-13 c-0.2-3.6-0.6-6.9-1.1-10.1c-0.5-4-1.1-8-2.1-11.8c-0.2-1-0.4-2.2-0.7-3.2c-0.3-1.1-0.7-2.1-1.1-3.1c-1.8-5.7-4-11.2-6.8-16.4 c0,0,0,0,0,0c-6.4-12.2-14.2-22.5-23.2-31c-6.4-6-13.9-11.5-23-16.6c-8.8-5.1-18.8-9.2-30.3-12.4c-11.3-3-23.7-4.6-37.4-4.8 c-15.6,0-29.4,1.6-44.5,5.1l5.4,48.3c7.6-1.1,14.9-2.1,22.5-2.5c20.3,1.3,29.6,2.7,35.8,4.6c2.5,0.8,4.6,1.6,6.6,2.5 c6.9,3,13.5,7.6,19.6,13.3c5.1,4.8,9.3,10.8,12.7,17.5c3.2,6.9,5.1,14,5.4,22.1c0,1,0,2,0,3c-0.2,6.9-1.7,13.9-4.7,21.4 c-0.2,0.4-0.5,0.9-0.7,1.3c-3,6.8-7.8,13.4-14.1,19.9c-1.2,1.2-2,2.5-3.3,3.7l-14.9,14l-42.3,39.8l-22.5,21.2l-5.4,5.1l-17.9,16.8 l-0.2,0.2v0.2l-2.6,2.4l0,0v0l-5.6,5.2v0l-0.1-0.1l-23,21.6l-153.4,144.2l-10.8,10.1l10.8,10.1l29.8,28.1l10.8-10.1h0l66.1-62.1 c-1.7,11.3-2.7,22.3-2.7,33.6c0,11.6,1.1,23,2.7,34.3c3,21.4,8.6,42.5,17.4,63.4c2.2,5.7,5.1,11.3,8.1,16.8 c3.5,6.8,7.3,13.4,11.4,19.9c1.3,2,2.7,3.9,4,5.8c3.2,4.7,6.5,9.4,10,13.9c6.4,8.2,13.4,16,21,23.6c1,1,1.9,2,2.9,3 c1,0.9,1.8,1.9,2.8,2.8c3.2,3,6.6,5.7,9.9,8.5c8.1,6.9,16.3,13.4,25,19.1c12.2,8.1,25,15.2,38.3,21.3c6.1,2.8,12,5.3,18.1,7.6 c16.1,6,32.4,10.5,48.9,13.6c0,0,0,0,0,0c0,0,0,0,0,0c1.2,0.2,2.4,0.5,3.7,0.7c0.4,0.1,0.8,0.1,1.2,0.2 c16.5,2.8,33.2,4.4,49.9,4.4c11.5,0,22.9-0.9,34.3-2.3c3.6-0.4,7.1-0.9,10.6-1.5c0.2,0,0.4-0.1,0.6-0.1c1.3-0.2,2.6-0.3,3.9-0.5 c0,0,0,0,0,0c18.4-3.2,36.5-8,54.5-14.7c32.8-12.2,62.1-30.5,88.3-54.5c1-0.9,2-1.6,2.9-2.5c7.3-6.8,14-13.9,20.3-21.3l0,0 c6.3-7.4,12.1-15.1,17.4-23c8.9-13.1,16.6-26.9,22.7-41.3c6.3-14.8,11-29.7,14.3-44.7c3.9-17.5,6-35.2,6-53 C2644,2254.7,2637.4,2222.3,2624.1,2190.3z M2519.4,2430.3c-16,15.2-33.6,27.4-52.6,36.8c-6.4,3.1-12.9,6-19.5,8.5 c-1.6,0.6-3.3,1.2-4.9,1.8c-8.2,2.8-16.5,5.2-24.8,7.1c0,0-0.1,0-0.1,0c0,0,0,0,0,0c-1.3,0.3-2.6,0.4-3.9,0.7 c-3.7,0.8-7.3,1.4-11,2c-0.1,0-0.2,0-0.2,0c-1.6,0.3-3.1,0.7-4.7,0.9c-6.7,0.9-13.4,1.6-20.1,1.9c-3.4,0.2-6.7,0.2-10.1,0.2 c-0.6,0-1.2,0-1.8,0c-0.1,0-0.2,0-0.2,0c-6.9,0-13.7-0.3-20.5-0.9c-5.6-0.5-11.1-1.4-16.6-2.3c-3.8-0.6-7.5-1.4-11.3-2.3 c-1.2-0.3-2.4-0.6-3.7-0.9c0,0,0,0,0,0c0,0,0,0,0,0c-3.1-0.7-6.2-1.3-9.2-2.2c-6.7-1.9-13.4-4.1-20.1-6.6c-13.3-5.1-26-11.4-38-19 c-12-7.6-23.4-16.4-34.2-26.6c-0.9-0.8-1.7-1.8-2.5-2.6c-1.2-1.1-2.2-2.3-3.3-3.4c-0.2-0.2-0.4-0.4-0.6-0.6 c-1.1-1.1-2.2-2.2-3.3-3.4c-1.8-1.8-3.7-3.6-5.4-5.5c0-0.1-0.1-0.1-0.1-0.2c-1.6-1.8-2.9-3.7-4.4-5.5c-3-3.7-6.1-7.3-8.8-11.2 c-0.1-0.2-0.2-0.4-0.3-0.5c0,0-0.1-0.1-0.1-0.1c-0.4-0.6-0.7-1.2-1.1-1.8c-1.3-1.9-2.4-3.8-3.7-5.8c0,0,0,0,0,0 c-0.7-1.2-1.5-2.3-2.2-3.5c-0.4-0.7-0.9-1.4-1.3-2.1c0,0,0,0,0,0c-0.2-0.3-0.4-0.6-0.6-0.9c-0.1-0.1-0.2-0.3-0.2-0.4 c-0.4-0.7-0.9-1.3-1.3-2c0-0.1-0.1-0.1-0.1-0.2c-0.2-0.4-0.4-0.8-0.6-1.2c-0.2-0.4-0.4-0.8-0.6-1.2c-1.9-3.4-3.6-6.9-5.2-10.5 c0,0,0,0,0,0c-0.1-0.3-0.3-0.5-0.4-0.8c-0.7-1.6-1.6-3-2.3-4.6c-2.8-6.3-5.2-12.7-7.2-19c-2.1-6.4-3.8-12.7-5.1-19.1 c-2.8-12.8-4.2-25.8-4.3-38.9c0-4,0.3-8,0.5-11.9c0.1-2.5,0.1-5.1,0.3-7.6c0-0.2,0.1-0.4,0.1-0.7c0.4-3.9,1.1-7.7,1.7-11.6 c0.4-2.5,0.6-5.1,1.2-7.6c0.3-1.3,0.7-2.6,1-3.9c0.7-2.9,1.4-5.8,2.2-8.7c0.2-0.8,0.4-1.6,0.6-2.4c0.4-1.4,0.6-2.7,1.1-4.1 c1.9-6.3,4.2-12.6,6.8-18.8c1-2.4,2.3-4.8,3.5-7.2c0-0.1,0.1-0.1,0.1-0.2c0.1-0.2,0.2-0.4,0.3-0.6c0,0,0,0,0,0 c1.7-3.4,3.3-6.8,5.2-10.1c0.8-1.5,1.7-3,2.6-4.4c0.1-0.1,0.2-0.3,0.2-0.4c1.4-2.4,2.7-4.8,4.2-7.1c0,0,0,0,0,0l0,0l0,0 c0,0,0,0,0,0l0,0l3.7-3.4l1.1-1.1l0.1,0.1l12.1-11.3l2.1-2l4.9-4.6l2.4-2.3l1.5-1.4l3.9-3.7l0,0l9.8-9.2l11.6-10.9l19.2-18 c3.7-2.1,7.7-3.5,11.5-5.4c4.9-2.5,9.8-5,14.9-7.1c1.9-0.8,3.7-1.9,5.6-2.7c3.9-1.4,7.8-2.5,11.7-3.8c0.2-0.1,0.5-0.2,0.7-0.2 c1.6-0.5,3.1-1.1,4.7-1.5c0.1,0,0.1,0,0.2-0.1c7.4-2.1,14.8-3.9,22.3-5.3c3.2-0.6,6.5-0.9,9.8-1.4c3.9-0.5,7.8-1.2,11.7-1.6 c2.2-0.2,4.4-0.2,6.6-0.3c3.3-0.2,6.5-0.4,9.8-0.4c0.6,0,1.2-0.1,1.9-0.1c0,0,0,0,0,0c0.8,0,1.6-0.1,2.5-0.1 c7,0.1,13.9,0.4,20.8,1.1c20.7,2.1,41.2,7,61.4,14.7c26.7,10.1,50.9,25.5,72.4,45.5c10.8,10.1,20.2,20.9,28.2,32.2 c4,5.7,7.7,11.5,11,17.5c3.3,6,6.3,12.1,8.9,18.4c4,9.3,7.3,18.8,9.9,28.3c2.5,9.5,4.3,19.2,5.4,28.8c0.7,6.5,1.1,12.9,1.1,19.4v0 c0,1.4-0.2,2.7-0.2,4.1c-0.3,16.5-2.9,32.8-7.5,48.8c-0.6,2.3-1.1,4.6-1.9,6.8c-1.9,5.7-3.9,11.4-6.3,17.1 c-2.5,6-5.3,11.7-8.4,17.4c-9,16.4-20.8,31.6-34.9,45.7C2522.6,2427,2521.1,2428.7,2519.4,2430.3z"/> <path class="st2" d="M1674.8,2961.2c-1.2-3-2.8-5.8-4.7-8.5c-1.7-2.4-3.8-4.7-6-6.9c-0.3-0.3-0.5-0.7-0.8-1 c-2.6-2.4-5.4-4.6-8.3-6.4c-2.9-1.8-5.9-3.3-9-4.4c-3.2-1.1-6.4-2-9.7-2.6c-3.3-0.6-6.7-0.9-10.1-0.9c-0.2,0-0.5,0.1-0.7,0.1 c-0.9,0-1.8,0.2-2.7,0.2c0,0,0,0,0,0c0,0,0,0,0,0c-2.2,0.1-4.5,0.2-6.6,0.6c-3.3,0.6-6.5,1.4-9.7,2.6c-4.9,1.8-9.2,4.5-13.5,7.8 c-1.3,1-2.6,1.9-3.9,3c-2.4,2.2-4.3,4.6-6.1,7.1c-2.1,2.9-3.9,6-5.4,9.2c-1.2,3-2.1,6-2.6,9.1c-0.6,3.1-0.8,6.2-0.8,9.3 c0,5.9,1.3,11.6,3.4,17.1c0.2,0.5,0.3,1,0.5,1.6c1.3,3.1,2.9,6,4.9,8.8c0,0,0,0,0,0c0.9,1.2,2,2.3,3,3.4c0.3,0.4,0.6,0.7,0.9,1.1 c0.8,0.8,1.4,1.7,2.2,2.5c0.2,0.2,0.3,0.4,0.5,0.6c2.6,2.4,5.3,4.5,8.1,6.3c2.9,1.8,5.9,3.3,9.2,4.5c6.1,2.2,12.3,3.3,18.6,3.4 c0.2,0,0.5,0.1,0.7,0.1c6.6,0,13.2-1.1,19.6-3.4c6.4-2.5,12.2-6,17.4-10.8c2.9-2.7,5.3-5.7,7.3-8.8c1.6-2.4,3.1-4.9,4.2-7.5 c1.2-3,2.1-6,2.8-9.1c0.6-3.1,1-6.3,1.1-9.5c0-3.1-0.3-6.2-0.9-9.3C1676.9,2967.3,1676,2964.2,1674.8,2961.2z"/> <path class="st2" d="M1876.9,2868.1C1876.9,2868.1,1876.9,2868.1,1876.9,2868.1c-3.2-6.3-6.7-12.5-10.5-18.5 c-8.4-13.4-18.6-25.9-29.9-37.9c-3.9-4.2-7.5-8.5-11.7-12.5c0,0,0,0,0,0c-1.8-1.7-3.8-3.2-5.7-4.9c-0.8-0.7-1.6-1.4-2.5-2.1 c-0.1-0.1-0.1-0.1-0.2-0.2c-7-6-14.2-11.7-21.6-16.9c-2.3-1.6-4.7-3.3-7-4.9c-1.1-0.7-2.3-1.4-3.4-2.1c-4.4-2.8-8.7-5.6-13.3-8.1 c-6.4-3.5-13-6.8-19.7-9.9c0,0,0,0,0,0c-5.9-2.8-11.7-5.5-17.9-7.6c-34-12.6-68.5-18.9-104-18.9c-2.3,0-4.6,0.2-6.9,0.3 c0,0,0,0,0,0c-1.5,0-2.9,0.1-4.4,0.2c-2.4,0.1-4.7,0.1-7.1,0.3c-5,0.4-9.9,0.9-14.9,1.4c-1.1,0.1-2.3,0.2-3.4,0.3 c1.3-1.5,2.2-3,3.4-4.5l0,0c6.2-7.5,11.2-15.1,14.9-22.8c1.3-2.6,3-5.1,3.9-7.7c1.4-3.7,2.2-7.4,3.2-11c0.8-2.9,1.9-5.8,2.5-8.7 c0.4-2.2,0.4-4.2,0.6-6.3c0.6-4.4,1.3-8.8,1.2-13c0-1.8-0.1-3.5-0.2-5.3c-0.5-7.6-2-14.9-4.2-21.8c-1.7-6-4.2-12-7.1-17.7 c0,0,0,0,0,0c-1.3-2.3-2.8-4.3-4.2-6.5c-2.9-4.6-5.9-9-9.2-13.1c0,0,0,0,0,0c-0.5-0.6-1-1.1-1.5-1.7c-2.8-3.3-5.5-6.7-8.6-9.7 c0,0,0,0,0,0c-1.1-1.1-2.5-2-3.7-3.1c-0.7-0.6-1.3-1.1-2-1.6c-1.6-1.3-3-2.7-4.7-3.9c-3.8-2.8-7.9-5.4-12.3-7.9c0,0,0,0,0,0 c-2.8-1.6-6-2.9-9.1-4.3c-2.6-1.2-5.3-2.3-8.1-3.4c-3.6-1.4-7.3-2.7-11.2-3.8l-2-0.7c-11.5-3-24-4.8-37.6-4.8c0,0,0,0,0,0h0 c-0.8,0-1.7,0-2.5,0c-0.7,0-1.6,0.2-2.3,0.2c-7.3,0.1-15,0.6-23.1,1.7c-5.4,0.8-10.9,1.7-16.6,3l5.6,48.3 c7.3-1.1,14.9-1.8,22.3-2.3c4-0.1,6.6-0.1,8.6-0.1c2.4,0,3.9,0.1,5.3,0.2c0.9,0.1,1.8,0.2,2.7,0.3h0c1.7,0.2,3.4,0.3,5.1,0.5 c6.9,0.9,13.9,3,20.8,6c4.6,2.3,9.2,5.4,13.7,8.9c1.9,1.5,3.8,2.9,5.6,4.6c5.1,4.8,9.5,10.6,12.7,17.5c3.4,6.7,5.1,14,5.4,21.8v3 c-0.2,6.9-1.7,14.2-4.6,21.6c-0.2,0.4-0.5,0.9-0.7,1.3c-1.6,3.7-3.6,7.4-6.3,11.1c-1.7,2.4-4.2,4.8-6.4,7.2 c-1.6,1.7-2.8,3.5-4.6,5.2l-1,0.9l-13.7,12.9l-25.9,24.4l0,0l-26.1,24.5l-12.8,12.1l-5.6,5.3l-17.9,16.8 c5.8-5.4,11.8-10.4,17.9-15.2c1.9-1.5,3.7-3,5.6-4.4c5.3-4,10.7-7.7,16.2-11.3c-5.5,3.6-11,7.3-16.2,11.3 c-1.9,1.4-3.8,2.9-5.6,4.4c-6.1,4.8-12.1,9.8-17.9,15.2v0c-0.1,0.1-0.2,0.1-0.2,0.2l-31.1,29.2L1239,2983.3l40.6,38.2l76.6-72 c-1.5,11-2.7,22.3-2.7,33.6c0,11.5,1.1,22.9,2.7,34.2c3,21.4,8.6,42.6,17.4,63.5c5.3,12.8,12,24.9,19.5,36.7 c1.3,2,2.5,4.1,3.8,6.1c3.2,4.6,6.7,9,10.2,13.4c0,0,0,0,0,0c6.5,8.2,13.5,16.1,21.2,23.7c1,0.9,1.8,1.9,2.8,2.9 c0.9,0.9,1.7,1.9,2.7,2.7c2.9,2.7,5.9,5,8.9,7.5c24.7,21.4,52,37.9,82.4,49.2c16.2,5.9,32.5,10.3,48.9,13.4 c1.1,0.2,2.3,0.5,3.4,0.7c0.5,0.1,1,0.1,1.6,0.2c9.2,1.6,18.5,2.6,27.8,3.3c7.4,0.6,14.8,1,22.3,1c5.6,0,11.1-0.4,16.6-0.7 c9.4-0.5,18.7-1.5,28-2.9c1.6-0.2,3.2-0.4,4.8-0.6c18.3-3.1,36.5-7.9,54.3-14.6c32.9-12.4,62.2-30.6,88.5-54.6 c0.9-0.8,1.9-1.5,2.8-2.4c7.3-6.8,14-14,20.3-21.3V3259c0,0.5,0,0.9,0,1.4c0,0.1,0,0.2,0,0.3v-116.2c4.5-5.2,8.7-10.6,12.7-16.1 c1.6-2.2,3.1-4.4,4.7-6.6c5.6-8.3,10.6-16.8,15.1-25.6c0,0,0,0,0,0c2.7-5.3,5.5-10.6,7.8-16.1c13.5-32,20.3-64.4,20.3-97.5 c0-33.3-6.9-65.8-20.1-97.7C1882.5,2879.1,1879.6,2873.6,1876.9,2868.1z M1496.9,2755.6c8.4-4.3,17-8.2,25.9-11.7 C1514,2747.4,1505.3,2751.3,1496.9,2755.6L1496.9,2755.6L1496.9,2755.6z M1780.5,3124.9c-21.5,20-45.8,35.2-72.4,45.1 c-9.8,3.7-19.7,6.5-29.6,8.8c-10.9,2.5-21.8,4.4-32.8,5.3c-6.4,0.5-12.9,0.9-19.3,0.9c-6.6,0-13.1-0.3-19.6-0.9 c-6-0.5-11.9-1.4-17.9-2.4c-3.8-0.7-7.7-1.5-11.5-2.4c-1.1-0.3-2.3-0.5-3.4-0.8c-9.9-2.4-19.7-5.2-29.4-8.9 c-10.4-3.9-20.3-8.8-29.9-14.2c-8.9-5-17.5-10.5-25.7-16.9c-5.7-4.4-11.2-9.2-16.6-14.2c-0.9-0.9-1.7-1.8-2.6-2.7 c-1.1-1.1-2.1-2.3-3.2-3.4c-0.2-0.2-0.4-0.4-0.6-0.6c-1.1-1.2-2.2-2.3-3.3-3.5c-1.7-1.8-3.6-3.6-5.3-5.5c-0.2-0.2-0.3-0.4-0.5-0.6 c-1.6-1.8-3-3.8-4.5-5.7c0,0,0,0,0,0c-3-3.7-6-7.3-8.7-11.1c-0.1-0.2-0.2-0.3-0.3-0.5c0,0,0,0,0,0c-0.3-0.5-0.6-1-0.9-1.4 c-1.3-1.9-2.4-3.8-3.7-5.7c-0.6-0.9-1.2-1.8-1.8-2.8c-0.3-0.4-0.6-0.8-0.8-1.3c-0.3-0.6-0.7-1.1-1.1-1.7c0,0,0,0,0,0 c-0.2-0.4-0.5-0.7-0.7-1.1c-0.1-0.1-0.2-0.3-0.2-0.4c-0.5-0.8-1-1.6-1.5-2.4c-2.4-4.2-4.4-8.5-6.4-12.8c-0.1-0.2-0.2-0.3-0.2-0.5 c-0.7-1.5-1.6-2.9-2.2-4.4c-2.8-6.3-5.2-12.7-7.2-19.1c-2.8-8.5-4.7-17.1-6.3-25.7c-0.4-2.2-0.8-4.3-1.1-6.5 c-1.3-8.6-2.2-17.3-2.3-26c0,0,0,0,0,0c0-4,0.3-8,0.5-12c0.1-2.7,0.1-5.5,0.4-8.2c0.4-3.9,1.1-7.7,1.7-11.5 c0.4-2.5,0.7-5.1,1.2-7.6c0.9-4.3,2.1-8.6,3.3-12.9c0.5-2,0.9-4,1.5-6c1.9-6.3,4.2-12.6,6.8-18.8c1.1-2.6,2.4-5.1,3.7-7.6 c0.1-0.2,0.2-0.3,0.2-0.5c2.4-4.9,5-9.7,7.8-14.4c0.1-0.1,0.2-0.3,0.2-0.4c1.5-2.4,2.8-4.9,4.4-7.3l3.7-3.5l1.2-1.1h0l12-11.4 l2.2-2.1l4.6-4.4l3.9-3.7l4.2-3.9l21.2-19.8l5-4.7l0,0l14.2-13.3c0.1-0.1,0.3-0.2,0.4-0.2c3.7-2.2,7.5-4.1,11.3-6.1 c4.5-2.3,9-4.3,13.7-6.3c0.3-0.1,0.7-0.3,1-0.4c1.6-0.6,3.1-1.4,4.6-2c0.3-0.1,0.6-0.3,1-0.4c3.9-1.4,7.8-2.5,11.7-3.8 c1.8-0.6,3.6-1.2,5.4-1.7c0,0,0,0,0,0c0.9-0.3,1.8-0.6,2.7-0.9c6.6-1.8,13.2-3.3,19.8-4.5c0.4-0.1,0.8-0.1,1.2-0.2 c2.9-0.5,5.9-0.8,8.9-1.2c1.1-0.2,2.3-0.3,3.4-0.5c5-0.6,9.9-1,14.9-1.3c2.4-0.1,4.7-0.3,7.1-0.3c1.5,0,2.9-0.2,4.4-0.2 c0,0,0,0,0,0c0.3,0,0.5,0,0.8,0c0.6,0,1.3,0,1.9,0c13.1,0.1,25.9,1.4,38.7,3.7c2.2,0.4,4.4,0.9,6.5,1.3 c10.6,2.2,21.2,5.2,31.7,8.9c1.7,0.6,3.4,1,5,1.7c3,1.1,5.8,2.6,8.7,3.8c6,2.6,11.8,5.4,17.5,8.5c0.5,0.3,1,0.6,1.5,0.9 c5.6,3.1,11,6.4,16.3,10l0,0c0.5,0.3,1,0.7,1.4,1c6.6,4.6,13.1,9.6,19.3,14.9c2.5,2.2,5.2,4.2,7.7,6.6 c10.8,10.1,20.2,20.8,28.3,32.1c4,5.6,7.7,11.4,11.1,17.3c3.4,6,6.4,12.1,9.1,18.4c2.7,6.3,5,12.6,7.1,18.9 c6.1,19,9.1,38.2,9.1,57.9c0,3.9-0.3,7.8-0.5,11.7c-0.1,2.6-0.1,5.1-0.3,7.7c0,0.2-0.1,0.4-0.1,0.6c-0.4,3.8-1.1,7.7-1.7,11.5 c0,0,0,0,0,0c-0.4,2.5-0.7,5.1-1.2,7.6c0,0,0,0,0,0c-0.9,4.3-2.1,8.5-3.3,12.8c0,0,0,0,0,0c-0.6,2-0.9,4-1.6,6 c0,0.1-0.1,0.1-0.1,0.2c-2,6.3-4.2,12.5-6.8,18.7c-2.5,5.8-5.4,11.5-8.4,17.1c-2.4,4.3-5.1,8.4-7.8,12.6 c-5.1,7.8-10.6,15.5-16.9,22.7c-3.2,3.7-6.8,7.2-10.4,10.8C1783.6,3121.6,1782.2,3123.3,1780.5,3124.9z"/> </g> <g> <path class="st3" d="M2283.8,2475.2c6.7,2.5,13.4,4.7,20.1,6.6c3.1,0.9,6.2,1.4,9.2,2.2c0,0,0,0,0,0c0,0,0,0,0,0 c1.2,0.3,2.4,0.6,3.7,0.9c3.7,0.8,7.5,1.6,11.3,2.3c5.5,0.9,11.1,1.8,16.6,2.3c6.8,0.6,13.7,0.9,20.5,0.9c0.1,0,0.2,0,0.2,0 c0.6,0,1.2,0,1.8,0c3.4,0,6.7-0.1,10.1-0.2c6.7-0.3,13.4-0.9,20.1-1.9c1.6-0.2,3.1-0.6,4.7-0.9c0.1,0,0.2,0,0.2,0 c3.7-0.6,7.3-1.3,11-2c1.3-0.3,2.6-0.4,3.9-0.7c0,0,0,0,0,0c0,0,0.1,0,0.1,0c8.3-1.9,16.6-4.3,24.8-7.1 c-8.2,2.8-16.5,5.2-24.8,7.1c8.3-1.9,16.6-4.3,24.8-7.1c1.6-0.6,3.3-1.2,4.9-1.8c-1.6,0.6-3.3,1.2-4.9,1.8 c1.6-0.6,3.3-1.2,4.9-1.8c6.7-2.5,13.2-5.4,19.5-8.5c19.1-9.4,36.7-21.6,52.6-36.8c1.7-1.6,3.2-3.4,4.9-5 c14.1-14.1,25.9-29.2,34.9-45.7c3.1-5.7,5.9-11.4,8.4-17.4c3.4-7.9,6-15.9,8.2-23.9c-0.5,1.7-0.7,3.3-1.2,5 c1.6-5,2.8-10.1,3.9-15.1c0.4-1.9,0.6-3.8,1-5.7c0.7-3.4,1.3-6.9,1.8-10.3c0.4-2.4,1-4.8,1.2-7.2c0.5-5.1,0.7-10.2,0.8-15.4 c0,0,0,0,0,0c0-1.4,0.2-2.7,0.2-4.1v0c-0.1-6.5-0.4-13-1.1-19.4c-2.1-19.4-7.2-38.5-15.2-57.1c-2.6-6.3-5.6-12.4-8.9-18.4 c-3.3-6-7-11.8-11-17.5c-8-11.4-17.5-22.1-28.2-32.2c-21.5-20-45.8-35.4-72.4-45.5c-20.2-7.8-40.6-12.7-61.4-14.7 c-6.9-0.7-13.9-1.1-20.8-1.1c-0.8,0-1.7,0.1-2.5,0.1c0,0,0,0,0,0c-0.6,0-1.2,0.1-1.9,0.1c-3.3,0.1-6.6,0.2-9.8,0.4 c-2.2,0.1-4.4,0.1-6.6,0.3c-3.9,0.3-7.8,1-11.7,1.6c-3.3,0.5-6.5,0.8-9.8,1.4c-7.5,1.4-14.9,3.2-22.3,5.3c-0.1,0-0.1,0-0.2,0.1 c-1.6,0.4-3.1,1-4.7,1.5c-0.2,0.1-0.5,0.2-0.7,0.2c-3.9,1.2-7.9,2.3-11.7,3.8c-2,0.7-3.7,1.9-5.6,2.7c-5.1,2.1-10,4.6-14.9,7.1 c-3.8,1.9-7.8,3.3-11.5,5.4l-19.2,18l-11.6,10.9l-9.8,9.2l0,0l-3.9,3.7l-1.5,1.4l-2.4,2.3l-4.9,4.6l-2.1,2l-12.1,11.3l-0.1-0.1 l-1.1,1.1l-3.7,3.4l0,0c0,0,0,0,0,0l0,0l0,0c0,0,0,0,0,0c-1.5,2.3-2.8,4.7-4.2,7.1c-0.1,0.1-0.2,0.3-0.2,0.4 c-0.9,1.5-1.8,2.9-2.6,4.4c-1.9,3.3-3.5,6.7-5.2,10.1c0,0,0,0,0,0c-0.1,0.2-0.2,0.4-0.3,0.6c0,0.1-0.1,0.1-0.1,0.2 c-1.2,2.4-2.5,4.8-3.5,7.2c-2.6,6.3-4.9,12.5-6.8,18.8c-0.4,1.4-0.7,2.7-1.1,4.1c-0.2,0.8-0.4,1.5-0.6,2.3 c-1.1,4.2-2.3,8.4-3.2,12.6c-0.5,2.5-0.7,5-1.1,7.5c-0.6,3.9-1.3,7.7-1.7,11.6c0,0.2-0.1,0.4-0.1,0.7c-0.2,2.5-0.2,5.1-0.3,7.6 c-0.2,4-0.5,7.9-0.5,11.9c0.1,13.1,1.5,26,4.3,38.9c1.4,6.4,3.1,12.8,5.1,19.1c2.1,6.4,4.5,12.7,7.2,19c0.7,1.6,1.6,3,2.3,4.6 c0.1,0.3,0.3,0.5,0.4,0.8c0,0,0,0,0,0c1.7,3.5,3.3,7,5.2,10.5c0.4,0.8,0.8,1.7,1.2,2.4c0,0.1,0.1,0.1,0.1,0.2 c0.4,0.7,0.9,1.3,1.3,2c0.1,0.1,0.2,0.3,0.2,0.4c0.2,0.3,0.4,0.6,0.6,0.9c0,0,0,0,0,0c0.4,0.7,0.9,1.4,1.3,2.1 c0.7,1.2,1.5,2.3,2.2,3.5c0,0,0,0,0,0c1.2,1.9,2.4,3.9,3.7,5.8c0.4,0.6,0.7,1.2,1.1,1.8c0,0,0.1,0.1,0.1,0.1 c0.1,0.2,0.2,0.4,0.4,0.5c2.7,3.8,5.8,7.4,8.7,11.1c1.5,1.9,2.9,3.8,4.5,5.6c0,0.1,0.1,0.1,0.1,0.2c1.7,1.9,3.6,3.6,5.4,5.5 c1.1,1.1,2.2,2.3,3.3,3.4c0.2,0.2,0.4,0.4,0.6,0.6c1.1,1.1,2.2,2.3,3.3,3.4c0.9,0.9,1.6,1.8,2.5,2.6c10.8,10.1,22.1,19,34.2,26.6 c6,3.8,12.2,7.3,18.5,10.4C2270.6,2469.8,2277.1,2472.6,2283.8,2475.2z M2331.8,2247.7c4.2-3.4,8.8-6.1,13.7-7.9 c5.3-1.9,10.7-2.9,16.3-3.3c0,0,0,0,0,0c0,0,0,0,0,0c1.2-0.1,2.3-0.3,3.5-0.4c6.9,0.2,13.5,1.4,19.8,3.7 c6.4,2.3,12.2,5.7,17.4,10.8c5.1,4.8,9.1,10.1,11.5,16.1c1.1,2.7,1.9,5.4,2.5,8.1c0.6,2.7,0.9,5.4,1,8.2c0,0.8,0,1.6,0,2.4 c0,6.2-1.2,12.4-3.9,18.4c-1.1,2.6-2.5,5.1-4.1,7.6c-0.2,0.3-0.3,0.7-0.5,1c-1.8,2.6-3.9,5.1-6.4,7.4c-0.1,0.1-0.1,0.2-0.2,0.3 c-2.7,2.4-5.4,4.5-8.3,6.4c-2.9,1.8-5.9,3.3-9.1,4.5c-6.6,2.3-13,3.4-19.6,3.4c-6.6,0-13.2-1.1-19.6-3.4 c-6.4-2.3-12.2-6-17.4-10.8c-0.1-0.1-0.2-0.2-0.2-0.3c-0.9-0.8-1.5-1.8-2.3-2.7c-1.3-1.5-2.7-2.9-3.8-4.4c0,0,0,0,0,0 c-2-2.8-3.7-5.8-5.1-8.9c0,0,0,0,0,0c-1.6-4-2.5-8.1-3.1-12.2c-0.3-2-0.6-4.1-0.6-6.2v0c0,2,0.3,4,0.6,5.9c-0.2-2-0.6-3.9-0.6-5.9 c0,0,0,0,0,0c0-0.1,0-0.1,0-0.2c0,0.1,0,0.1,0,0.2c0-0.8,0-1.6,0-2.4v0c0.1-2.8,0.4-5.5,1-8.2c0.6-2.7,1.4-5.4,2.5-8.1 c1.2-3,2.8-5.8,4.7-8.5c0.2-0.3,0.5-0.5,0.6-0.7c1.8-2.4,3.8-4.7,6.1-6.9C2329.2,2249.4,2330.5,2248.6,2331.8,2247.7z"/> <path class="st3" d="M2095.4,2322.8c-1.6-11.4-2.7-22.8-2.7-34.3c0-11.3,1-22.3,2.7-33.6l-66.1,62.1v0l63.4,59.5l2.7,2.5 l17.4,16.3l8.1,7.6c-2.9-5.5-5.9-11-8.1-16.8C2104,2365.3,2098.4,2344.2,2095.4,2322.8z"/> <path class="st3" d="M1461.5,956.3c-53.1-49.9-122.7-74.8-192.3-74.8c-69.6,0-139.1,24.9-192.1,74.8l-247.9,232.9v0l148.4,139.5 l413.3,388.4l597.8,561.7h0l153.4-144.2l23-21.6l0.1,0.1v0l5.6-5.2v0l0,0l2.6-2.4v-0.2l0.2-0.2l17.9-16.8l5.4-5.1l22.5-21.2 l42.3-39.8l14.9-14c1.3-1.2,2.1-2.5,3.3-3.7c6.2-6.5,11.1-13.1,14.1-19.9c0.2-0.4,0.6-0.9,0.7-1.3c3-7.4,4.5-14.5,4.7-21.4 c0-1,0-2,0-3c-0.2-8-2.2-15.2-5.4-22.1c-3.4-6.7-7.6-12.6-12.7-17.5c-6.1-5.7-12.7-10.3-19.6-13.3c-2.2-1-4.4-1.7-6.6-2.5 c-6.2-1.9-15.4-3.3-35.8-4.6c-7.6,0.5-14.9,1.4-22.5,2.5l-5.4-48.3c15.1-3.4,28.9-5.1,44.5-5.1c13.7,0.2,26.2,1.8,37.4,4.8 c11.5,3.2,21.5,7.4,30.3,12.4c9.1,5.1,16.6,10.6,23,16.6c9.1,8.5,16.9,18.9,23.2,31c2.8,5.1,5,10.5,6.8,16.4 c0.7,2.1,1.2,4.2,1.7,6.3c1,3.9,1.6,7.8,2.1,11.8c0.4,3.2,0.8,6.5,1.1,10.1c0,4.3-0.7,8.7-1.2,13c-0.3,2.1-0.2,4.2-0.6,6.3 c-1.3,6.4-3.1,13-5.7,19.6c-1.1,2.7-2.8,5.4-4.2,8.2c-4.6,9.1-10.2,18.2-18.4,27c6.1-0.8,12.2-1.5,18.4-2 c3.9-0.3,7.8-0.4,11.7-0.5c0,0,0,0,0,0c2.3-0.1,4.6-0.3,6.9-0.3c35.2,0,70,6.4,103.7,18.9c34,12.4,64.6,31.5,91.3,56.6 c26.9,25.3,47,53.8,60.4,85.8c13.2,32,19.8,64.4,19.8,97.7c0,17.8-2.1,35.5-6,53c-3.4,15-8,30-14.3,44.7 c-6.1,14.4-13.8,28.2-22.7,41.3c-5.3,7.9-11.1,15.6-17.4,23l0,0c-6.3,7.3-13,14.5-20.3,21.3c-1,0.9-2,1.6-2.9,2.5 c-26.2,24-55.5,42.3-88.3,54.5c-18,6.7-36.2,11.5-54.5,14.7c0,0,0,0,0,0c-1.3,0.2-2.6,0.3-3.9,0.5c-0.2,0-0.4,0.1-0.6,0.1 c-3.5,0.6-7.1,1-10.6,1.5c-11.3,1.4-22.7,2.3-34.3,2.3c-16.8,0-33.4-1.5-49.9-4.4c-0.4-0.1-0.8-0.1-1.2-0.2 c-1.2-0.2-2.4-0.5-3.7-0.7c0,0,0,0,0,0c0,0,0,0,0,0c-16.5-3.1-32.8-7.6-48.9-13.6c-6.1-2.3-12-4.8-18.1-7.6l78.7,74l8,7.6 l145.8,137l44.6,41.9l620.8,583.2l0,0v0l291.5-273.9l148.4-139.5L1461.5,956.3z"/> </g> <g> <path class="st4" d="M664.5,1463.7c0.8,3.8,2,7.8,2.5,11.5c-0.7-4.4-1.5-8.9-2.5-13.5V1463.7z"/> <path class="st4" d="M3144.1,3364.5l-620.8-583.2l-44.6-41.9l-145.8-137l-8-7.6l-78.7-74c-13.3-6.1-26.1-13.2-38.3-21.3 c-8.7-5.8-16.9-12.3-25-19.1c-3.3-2.8-6.7-5.5-9.9-8.5c-1-0.9-1.8-1.9-2.8-2.8c-1-1-1.9-2-2.9-3c-7.6-7.6-14.6-15.4-21-23.6 c-3.5-4.5-6.8-9.2-10-13.9c-1.3-1.9-2.7-3.8-4-5.8c-4.1-6.5-8-13.1-11.4-19.9l-8.1-7.6l-17.4-16.3l-2.7-2.5l-63.4-59.5v0h0 l-10.8,10.1l-29.8-28.1l-10.8-10.1l10.8-10.1h0l-597.8-561.7l-413.3-388.4l-148.4-139.5v0l-79,74.3l-85.6,80.5 c2,2.3,4.4,4.8,6.4,7.1c11,13.7,20.6,28.1,28.1,42.9c4.5,8.8,8.4,17.8,11.1,27c6.1,21,8.5,40.9,8.5,59.3c0,3.1-0.3,6.1-0.4,9.1 c-0.2,3.7-0.2,7.4-0.6,11c0,0,0,0,0,0.1c-1,10.3-2.9,20-5.1,29.2c0,0,0,0,0,0c-1.8,7.5-3.9,14.7-6.2,21.4c0,0,0,0.1,0,0.1 c-3.6,10.1-5.4,20.5-5.6,30.8c0,0,0,0,0,0c0,2.2,0.5,4.4,0.7,6.6c0.1,2.5,0.4,4.9,0.7,7.3c0,0,0,0.1,0,0.1c0.1,0.5,0.1,1,0.2,1.5 c0.3,2.7,0.3,5.4,0.9,8.1c0.7,3.1,2.1,6,3.1,9.1c0.4,1.3,0.8,2.5,1.3,3.8c1.1,2.9,1.7,5.9,3.1,8.7c2,4.2,4.8,7.9,7.4,11.8 c0.2,0.3,0.4,0.7,0.6,1c0,0,0,0,0,0c0,0,0,0,0,0c0,0.1,0.1,0.1,0.1,0.2c0,0,0,0,0,0c0.4,0.5,0.7,1.1,1.1,1.7 c1,1.7,1.9,3.4,3.1,4.9c0,0,0,0,0,0c0,0,0,0,0,0c4.9,6.1,10.5,11.8,16.8,16.9c-0.1-0.1-0.2-0.3-0.4-0.4c0.1,0.1,0.2,0.3,0.4,0.4 c9.1,7.3,18.3,15.5,27.3,24.7c0.4,0.4,0.7,0.8,1,1.1c7.8,8,15.3,16.7,22.5,26.1c17.5,22.9,32.5,50.1,41.1,82.1 c4.2,15.2,6.6,29.7,7.6,43.7c0.6,6.6,0.8,13.1,0.7,19.5c-0.1,10.6-1,20.8-2.4,30.4l0,0l2.4,2.3l0,0l696.6,654.8 c3.9,1.1,7.6,2.5,11.2,3.8c2.8,1.1,5.5,2.2,8.1,3.4c3.1,1.4,6.2,2.7,9.1,4.3c0,0,0,0,0,0c0,0,0,0,0,0c4.4,2.5,8.5,5.2,12.3,7.9 c1.7,1.3,3.1,2.6,4.7,3.9c0.7,0.5,1.3,1.1,2,1.6c1.2,1,2.6,2,3.7,3.1l0,0c3.1,3,5.8,6.4,8.6,9.7c0.5,0.6,1,1.1,1.5,1.7 c3.3,4.1,6.3,8.5,9.2,13.1c1.4,2.2,3,4.2,4.3,6.6c0,0,0,0,0,0c0,0,0,0,0,0c2.9,5.7,5.4,11.7,7.1,17.7l68.6,64.5l64.5,60.6 c6.7,3,13.3,6.3,19.7,9.9c4.5,2.5,8.9,5.3,13.3,8.1c0,0,0,0,0,0c1.1,0.7,2.3,1.3,3.4,2.1c0,0,0,0,0,0c2.4,1.6,4.7,3.2,7,4.9 c7.5,5.2,14.6,10.9,21.6,16.9c0.9,0.8,1.8,1.5,2.7,2.3c1.9,1.7,3.8,3.2,5.7,4.9c0,0,0,0,0,0c16.5,15.5,30.3,32.3,41.6,50.4 c3.8,6,7.3,12.2,10.5,18.5l171.5,161.2l31.6,29.7l68.7,64.6l31.6,29.7l594.3,558.5l11.7-11l0,0l57.7-54l0,0l9.5-9.2l0,0l142-133.4 l69.4-65.2l9.5-9l0,0l57.7-54.3l0,0L3144.1,3364.5L3144.1,3364.5L3144.1,3364.5z M2350.9,2710.2l1.9,1.8l-31.6,29.7l-19.5,18.4 l-46.4,43.7l-2.5,2.4L2080,2968.6l-31.6-29.7l166.1-156.2l6.7-6.3l24.9-23.4l11.7-11l63.4-59.6l0,0L2350.9,2710.2z"/> </g> <path class="st5" d="M1685.3,3515.1l-54.7-51.4l-188-176.6l-35.4-33.3l-0.1-0.1l0,0l-38.9-36.5l-8.1-7.6l-3.9-3.6l-2.7-2.5 l-25.9-24.3l-48-45.1l-40.6-38.2l-500.3-470.2l-54.9-51.6l-3.3-3.1l0,0l-28.9-27.2c-1.5,2.5-2.7,4.8-4.4,7.4c-0.3,0.5-0.7,1-1,1.5 c-1,1.6-2.3,3.3-3.4,4.9c-8.4,12.4-18.1,25.4-30.1,39.4c-8.3,10.1-16.9,18.6-25.4,26c-19.7,17-29.8,39.9-29.9,67.1l29.9,28.1 l25.4,23.9l11.3,10.6l23.2,21.8l4.4,4.1l15.9,14.9l1542.2,1449.2l125-117.3L1685.3,3515.1z"/> <g> <path class="st6" d="M661.1,1448.1c1.6,5.3,2.3,10.4,3.4,15.5v-1.9C663.5,1457.2,662.5,1452.7,661.1,1448.1z"/> <path class="st6" d="M2356.9,1929.4c-1-3.3-2.5-6.1-3.8-9.2C2354.4,1923.3,2355.9,1926.1,2356.9,1929.4 C2356.9,1929.4,2356.9,1929.4,2356.9,1929.4z"/> <path class="st6" d="M2350.1,1913C2350.1,1913,2350.1,1913,2350.1,1913c1.2,2.3,2,4.9,3,7.3 C2352.1,1917.9,2351.3,1915.3,2350.1,1913z"/> <path class="st6" d="M1522.9,2744c-8.9,3.4-17.5,7.4-25.9,11.7l0,0h0C1505.3,2751.3,1514,2747.4,1522.9,2744z"/> <path class="st6" d="M1620.8,2671.6c-0.6,2.8-1.7,5.8-2.5,8.7c-1,3.7-1.8,7.3-3.2,11c-1,2.6-2.6,5.2-3.9,7.7 c-3.8,7.7-8.7,15.3-14.9,22.8l0,0c-1.2,1.5-2.1,3-3.4,4.5c1.1-0.1,2.3-0.2,3.4-0.3c5-0.5,9.9-1.1,14.9-1.4 c2.4-0.2,4.7-0.2,7.1-0.3c1.5-0.1,2.9-0.1,4.4-0.2c0,0,0,0,0,0c2.3-0.1,4.6-0.3,6.9-0.3c35.5,0,70,6.2,104,18.9 c6.1,2.1,12,4.8,17.9,7.6c0,0,0,0,0,0l-64.5-60.6l-68.6-64.5c2.2,6.9,3.7,14.3,4.2,21.8c0.1,1.8,0.2,3.5,0.2,5.3 c0,4.2-0.7,8.6-1.2,13C1621.1,2667.4,1621.2,2669.4,1620.8,2671.6z"/> <path class="st6" d="M2148.7,3123.5l-68.7-64.6l-31.6-29.7l-171.5-161.2c0,0,0,0,0,0c2.7,5.5,5.6,11,8.1,16.8 c13.2,32,20.1,64.4,20.1,97.7c0,33.1-6.9,65.5-20.3,97.5c-2.3,5.5-5.1,10.8-7.8,16.1c0,0,0,0,0,0c-4.5,8.8-9.5,17.4-15.1,25.6 c-1.5,2.2-3.1,4.5-4.7,6.6c-4,5.5-8.2,10.9-12.7,16.1v116.2c0-0.1,0-0.2,0-0.3c0-0.5,0-0.9,0-1.4v-114.5 c-6.3,7.3-13,14.5-20.3,21.3c-0.9,0.8-1.9,1.5-2.8,2.4c-26.2,24-55.6,42.2-88.5,54.6c-17.9,6.7-36,11.5-54.3,14.6 c-1.6,0.3-3.2,0.4-4.8,0.6c-9.3,1.4-18.6,2.4-28,2.9c-5.5,0.3-11.1,0.7-16.6,0.7c-7.5,0-14.9-0.4-22.3-1 c-9.3-0.7-18.6-1.8-27.8-3.3c-0.5-0.1-1-0.1-1.6-0.2c-1.1-0.2-2.3-0.5-3.4-0.7c-16.5-3.1-32.8-7.5-48.9-13.4 c-30.4-11.3-57.7-27.9-82.4-49.2c-2.9-2.5-6-4.9-8.9-7.5c-0.9-0.9-1.7-1.8-2.7-2.7c-1-0.9-1.8-1.9-2.8-2.9 c-7.7-7.6-14.7-15.5-21.2-23.7c0,0,0,0,0,0c-3.5-4.4-7-8.8-10.2-13.4c-1.4-2-2.5-4.1-3.8-6.1c-7.5-11.7-14.2-23.8-19.5-36.7 c-8.8-20.9-14.4-42.1-17.4-63.5c-1.6-11.4-2.7-22.8-2.7-34.2c0-11.3,1.2-22.5,2.7-33.6l-76.6,72l-40.6-38.2l164.2-154.3l31.1-29.2 c0.1-0.1,0.2-0.1,0.2-0.2v0c5.8-5.4,11.8-10.4,17.9-15.2c1.9-1.5,3.7-3,5.6-4.4c5.3-4,10.7-7.7,16.2-11.3 c-5.5,3.6-11,7.3-16.2,11.3c-1.9,1.4-3.8,2.9-5.6,4.4c-6.1,4.8-12.1,9.8-17.9,15.2l17.9-16.8l5.6-5.3l12.8-12.1l26.1-24.5l0,0 l25.9-24.4l13.7-12.9l1-0.9c1.9-1.7,3.1-3.5,4.6-5.2c2.2-2.4,4.7-4.8,6.4-7.2c2.7-3.7,4.7-7.4,6.3-11.1c0.2-0.4,0.6-0.9,0.7-1.3 c3-7.4,4.5-14.7,4.6-21.6v-3c-0.2-7.8-2-15.2-5.4-21.8c-3.2-6.9-7.6-12.6-12.7-17.5c-1.8-1.8-3.7-3.1-5.6-4.6 c-4.5-3.6-9.1-6.7-13.7-8.9c-6.9-3-13.9-5.1-20.8-6c-1.7-0.2-3.4-0.4-5.1-0.5h0c-0.9-0.1-1.8-0.2-2.7-0.3 c-1.8-0.1-3.6-0.2-5.3-0.2c-2,0-4.6,0-8.6,0.1c-7.3,0.5-14.9,1.1-22.3,2.3l-5.6-48.3c5.7-1.2,11.2-2.2,16.6-3 c8.1-1.1,15.8-1.6,23.1-1.7c0.7,0,1.6-0.2,2.3-0.2c0.9,0,1.7,0,2.5,0h0c0,0,0,0,0,0c13.7,0,26.2,1.8,37.6,4.8l2,0.7l-696.6-654.8 l0,0l-2.4-2.3c0,0,0,0,0,0c-5.6,37.5-19.3,67.6-31.6,88.1c-2.5,4.1-4.6,8.3-6.4,12.6c-0.6,1.5-1,3-1.6,4.5 c-0.7,1.9-1.4,3.7-1.9,5.6c-0.3,1-0.8,2-1.1,3.1c-0.5,1.8-0.7,3.7-1.1,5.6c-0.6,2.7-1.2,5.3-1.6,8c-0.3,2-0.3,4.1-0.4,6.1 c-0.2,2.7-0.5,5.4-0.5,8.2c0.1,6.2,0.7,12.4,1.8,18.6c1.6,8.5,3.3,18,5,28.2c0.6,3.5,1,7.4,1.6,11.1c1,7,2.1,13.8,3,21.2 c0.5,4.6,0.9,9.4,1.3,14c0.5,4.7,1,9.4,1.3,14.2c0.2,2.2,0.5,4.3,0.6,6.6c0.3,4.9,0.3,9.8,0.5,14.7c0.3,7.2,0.8,14.4,0.7,21.5 c-0.1,24.7-2.3,48.5-7.9,68.8c-2.1,7.5-4.8,14.8-8,21.9c-8.1,18.3-19.4,35.2-31.9,50.4c-3.6,4.4-7.4,8.6-11.2,12.7 c-15.7,17-32.3,31.4-46.3,42.2c-13.3,10.5-21.3,25.5-21.5,41.1c0,3.6,0.3,7.2,1.2,10.9c1.3,5.6,2.1,12.2,2.1,19.6 c0,7.9-1,16.9-3.3,26.9c0,0,0,0,0,0c-4.2,18.4-12.9,40.4-28.9,66.3l28.9,27.2l0,0l3.3,3.1l54.9,51.6l500.3,470.2l40.6,38.2 l48,45.1l25.9,24.3l2.7,2.5l3.9,3.6l8.1,7.6l38.9,36.5l0,0l0.1,0.1l35.4,33.3l188,176.6l54.7,51.4l649.4,610.2l291.5-274.1 l148.4-139.5l-594.3-558.5L2148.7,3123.5z"/> <path class="st6" d="M1584,2777.5c-0.4,0.1-0.8,0.1-1.2,0.2c-6.6,1.2-13.2,2.7-19.8,4.5c-0.9,0.2-1.8,0.6-2.7,0.9c0,0,0,0,0,0 c-1.8,0.5-3.6,1.2-5.4,1.7c-3.9,1.2-7.8,2.3-11.7,3.8c-0.3,0.1-0.6,0.3-1,0.4c-1.6,0.6-3.1,1.3-4.6,2c-0.3,0.1-0.7,0.3-1,0.4 c-4.7,1.9-9.2,4-13.7,6.3c-3.8,1.9-7.6,3.9-11.3,6.1c-0.1,0.1-0.3,0.2-0.4,0.2l-14.2,13.3l0,0l-5,4.7l-21.2,19.8l-4.2,3.9 l-3.9,3.7l-4.6,4.4l-2.2,2.1l-12,11.4h0l-1.2,1.1l-3.7,3.5c-1.6,2.4-2.9,4.8-4.4,7.3c-0.1,0.1-0.2,0.3-0.2,0.4 c-2.8,4.7-5.4,9.5-7.8,14.4c-0.1,0.2-0.2,0.3-0.2,0.5c-1.2,2.5-2.6,5-3.7,7.6c-2.6,6.3-4.9,12.5-6.8,18.8c-0.6,2-1,4-1.5,6 c-1.2,4.3-2.4,8.6-3.3,12.9c-0.5,2.5-0.8,5.1-1.2,7.6c-0.6,3.8-1.3,7.7-1.7,11.5c-0.3,2.7-0.3,5.5-0.4,8.2c-0.2,4-0.5,8-0.5,12 c0.1,6.6,0.5,13.1,1.2,19.6c1.5,13,4.3,25.9,8.4,38.6c2.1,6.4,4.5,12.7,7.2,19.1c0.7,1.5,1.5,2.9,2.2,4.4c0.1,0.2,0.2,0.3,0.2,0.5 c2,4.3,4,8.7,6.4,12.8c0.5,0.8,1,1.6,1.5,2.4c0.1,0.1,0.2,0.3,0.2,0.4c0.2,0.4,0.5,0.7,0.7,1.1c0,0,0,0,0,0 c0.3,0.6,0.7,1.1,1.1,1.7c0.3,0.4,0.6,0.8,0.8,1.3c0.6,0.9,1.2,1.9,1.8,2.8c1.2,1.9,2.4,3.9,3.7,5.7c0.3,0.5,0.6,1,0.9,1.4 c0,0,0,0,0,0c0.1,0.2,0.2,0.3,0.3,0.5c2.7,3.8,5.7,7.4,8.7,11.1c0,0,0,0,0,0c1.5,1.9,2.9,3.8,4.5,5.7c0.2,0.2,0.3,0.4,0.5,0.6 c1.6,1.9,3.5,3.6,5.3,5.5c1.1,1.2,2.2,2.3,3.3,3.5c0.2,0.2,0.4,0.4,0.6,0.6c1.1,1.1,2.1,2.3,3.2,3.4c0.9,0.9,1.7,1.9,2.6,2.7 c5.4,5.1,10.9,9.8,16.6,14.2c8.2,6.4,16.8,11.8,25.7,16.9c9.6,5.5,19.5,10.4,29.9,14.2c9.7,3.7,19.5,6.5,29.4,8.9 c1.1,0.3,2.3,0.6,3.4,0.8c3.8,0.9,7.7,1.7,11.5,2.4c5.9,1,11.9,1.9,17.9,2.4c6.5,0.6,13,0.9,19.6,0.9c6.5,0,12.9-0.3,19.3-0.9 c11-0.9,21.9-2.8,32.8-5.3c9.9-2.3,19.8-5.1,29.6-8.8c26.7-9.9,50.9-25.1,72.4-45.1c1.7-1.6,3.1-3.3,4.7-4.9 c3.5-3.5,7.2-7.1,10.4-10.8c6.3-7.3,11.8-14.9,16.9-22.7c2.7-4.1,5.4-8.3,7.8-12.6c3.1-5.6,5.9-11.3,8.4-17.1 c2.6-6.2,4.9-12.4,6.8-18.7c0-0.1,0.1-0.1,0.1-0.2c0.6-2,1-4,1.6-6c0,0,0,0,0,0c1.2-4.2,2.4-8.5,3.3-12.8c0,0,0,0,0,0 c0.5-2.5,0.8-5.1,1.2-7.6c0,0,0,0,0,0c0.6-3.8,1.4-7.7,1.7-11.5c0-0.2,0.1-0.4,0.1-0.6c0.3-2.6,0.2-5.1,0.3-7.7 c0.2-3.9,0.6-7.8,0.5-11.7c0-19.7-3-38.9-9.1-57.9c-2-6.3-4.4-12.6-7.1-18.9c-2.7-6.3-5.7-12.4-9.1-18.4 c-3.4-5.9-7-11.7-11.1-17.3c-8.1-11.3-17.5-22-28.3-32.1c-2.5-2.3-5.1-4.4-7.7-6.6c-6.2-5.4-12.6-10.3-19.3-14.9 c-0.5-0.3-1-0.7-1.4-1c0,0,0,0,0,0c-5.3-3.6-10.7-6.9-16.3-10c-0.5-0.3-1-0.6-1.5-0.9c-5.7-3.1-11.5-5.9-17.5-8.5 c-2.9-1.3-5.7-2.7-8.7-3.8c-1.7-0.6-3.4-1.1-5-1.7c-10.5-3.7-21.1-6.7-31.7-8.9c-2.2-0.5-4.3-0.9-6.5-1.3 c-12.8-2.3-25.7-3.6-38.7-3.7c-0.6,0-1.3,0-1.9,0c-0.3,0-0.5,0-0.8,0c0,0,0,0,0,0c-1.5,0-2.9,0.2-4.4,0.2 c-2.4,0.1-4.7,0.2-7.1,0.3c-5,0.3-10,0.7-14.9,1.3c-1.1,0.1-2.3,0.3-3.4,0.5C1589.9,2776.7,1586.9,2777,1584,2777.5z M1599.3,2937.4c2.2-1.3,4.5-2.5,7-3.3c3.2-1.1,6.4-2,9.7-2.6c2.2-0.4,4.4-0.4,6.6-0.6c0,0,0,0,0,0c0,0,0,0,0,0 c0.9-0.1,1.8-0.2,2.7-0.2c0.2,0,0.5-0.1,0.7-0.1c3.4,0,6.8,0.3,10.1,0.9c3.3,0.6,6.5,1.4,9.7,2.6c3.1,1.1,6.2,2.6,9,4.4 c1.7,1,3.2,2.4,4.7,3.6c1.2,0.9,2.5,1.7,3.6,2.8c0.3,0.3,0.5,0.7,0.8,1c2.2,2.2,4.3,4.4,6,6.9c1.9,2.7,3.5,5.5,4.7,8.5 c1.2,3,2.1,6,2.8,9.1c0.6,3.1,0.9,6.2,0.9,9.3c-0.1,3.2-0.5,6.4-1.1,9.5c-0.6,3.1-1.6,6.2-2.8,9.1c-1.1,2.6-2.5,5.1-4.2,7.5 c-2.1,3.1-4.5,6.1-7.3,8.8c-5.1,4.8-11,8.3-17.4,10.8c-6.4,2.3-13,3.4-19.6,3.4c-0.2,0-0.5-0.1-0.7-0.1 c-6.3-0.1-12.5-1.2-18.6-3.4c-3.3-1.3-6.4-2.8-9.2-4.5c-2.9-1.8-5.6-3.9-8.1-6.3c-0.2-0.2-0.3-0.4-0.5-0.6 c-0.8-0.8-1.4-1.7-2.2-2.5c-0.3-0.3-0.6-0.7-0.9-1.1c-1-1.1-2.1-2.2-3-3.4c0,0,0,0,0,0c-2-2.8-3.6-5.7-4.9-8.8 c-0.2-0.5-0.3-1-0.5-1.6c-2.1-5.5-3.4-11.2-3.4-17.1c0-3.1,0.2-6.2,0.8-9.3c0.5-3.1,1.4-6.1,2.6-9.1c1.5-3.2,3.3-6.3,5.4-9.2 c1.8-2.5,3.8-4.9,6.1-7.1c1.3-1.1,2.6-2,3.9-3C1595,2940.3,1597.1,2938.8,1599.3,2937.4z"/> <path class="st6" d="M1557.6,811.9c-79.6-74.8-184-112.3-288.3-112.3c-104.4,0-208.7,37.4-288.3,112.3l-402,377.5 c-2.9,2.8-5.5,5.7-7.7,8.8c-0.7,1-1.2,2.1-1.8,3.2c-1.3,2.1-2.7,4.3-3.6,6.5c-0.6,1.4-0.9,2.8-1.3,4.2c-0.7,2-1.5,4-1.9,6.1 c-0.3,1.5-0.3,3-0.5,4.5c-0.2,2.1-0.6,4.2-0.6,6.3c0.1,13.9,6.2,27.3,17.4,37.7c1.7,1.6,3.2,3.3,5.1,4.7 c27.6,20.2,56.8,45.1,80.5,72.7l85.6-80.5l79-74.3l247.9-232.9c53-49.9,122.5-74.8,192.1-74.8c69.6,0,139.2,24.9,192.3,74.8 L3584,2951.1l125-117.5L1557.6,811.9z"/> <polygon class="st6" points="651.6,2778.4 647.2,2774.3 624,2752.5 612.7,2741.9 587.2,2718 557.4,2689.9 557.4,2804 557.4,2926.2 557.4,2963.5 557.4,2968.9 2209.7,4521.5 2209.7,4286.7 2209.7,4242.6 667.5,2793.4 "/> </g> <path class="st7" d="M718.6,1700.8C718.6,1700.8,718.6,1700.8,718.6,1700.8C718.6,1700.8,718.6,1700.8,718.6,1700.8 c-4.1-4.3-8.3-8.3-12.4-12.1c-0.1-0.1-0.2-0.2-0.3-0.2c-1.8-1.7-3.6-3.2-5.4-4.8c-3.1-2.7-6.2-5.4-9.3-7.9 c-15.7-12.7-26.9-29.1-32.8-47.1c-1.8-5.4-3.1-10.9-3.8-16.5c-1.9-13.9-0.7-28.3,4.1-42.2c2.2-6.4,4.2-13.4,5.9-20.6 c3.2-13.8,5.2-29,5-45.5c-0.1-7.8-0.6-15.8-1.7-24.1c-0.2-1.5-0.5-3-0.7-4.5c-0.6-3.8-1.7-7.7-2.5-11.5c-1.1-5.2-1.8-10.2-3.4-15.5 c-7.1-23.2-20.6-45.3-37.2-66v200.1v78.8c12,14.9,22.2,30.5,29.7,46.8v170.8c0,28.7,13.6,56.7,37.6,76c17.9,14.5,36.6,33,52.8,55.4 c1.4-13.2,5.3-26.1,12.3-37.8c1.8-3.1,3.7-6.5,5.5-10.1c10.8-20.7,21.5-49.1,24.3-83.3v-35.8c-1.2-13.1-3.4-26.7-7.3-40.9 C767,1760.2,743.6,1726.6,718.6,1700.8z"/> <path class="st7" d="M758.1,2131.8c-0.8-10.3-1.9-20.5-3.1-30.4c-0.4-3-0.8-5.9-1.2-8.8c-1-7.2-2-14.2-3.1-20.9 c-0.4-2.6-0.8-5.2-1.3-7.7c-1.5-8.5-3-16.8-4.4-24c-1.2-6.2-1.8-12.3-1.9-18.5c0-0.3-0.1-0.6-0.1-0.9v232.1 c3.8-8,7.2-16.2,9.5-24.8c5.2-19.3,6.9-42.1,6.7-65.7c-0.1-9.6-0.4-19.2-1.1-28.9C758.2,2132.7,758.2,2132.2,758.1,2131.8z"/> <path class="st7" d="M3768.2,2889.3l-59.2-55.6l-125,117.5l-148.4,139.5l-291.5,273.9l-11.7,11l0,0l-57.7,54.3l0,0l-9.5,9 l-69.4,65.2l-142,133.4l0,0l-9.5,9.2l0,0l-57.7,54l0,0l-11.7,11l-148.4,139.5l-291.5,274.1l-125,117.3l59.2,55.6 c19.9,18.7,42.1,33.9,65.8,45.6c14.7,7.3,30,13,45.7,17.6c26.2,7.6,53.3,11.5,80.4,11.5c38.6,0,77.1-7.6,113-22.9 c28.6-12.4,55.8-29.4,79.5-51.7l372.9-350.4l11.5-10.8l57.7-54.3l9.5-9l211.6-198.6l9.5-9.2l57.7-54l11.5-11l372.9-350.4 c23.7-22.3,41.8-47.6,55.1-74.7c5.1-10.5,9.1-21.4,12.6-32.3c1-3.1,1.8-6.2,2.7-9.2c2.4-8.8,4.4-17.8,5.8-26.7c0.4-2.5,1-5,1.3-7.5 C3855.1,3024.9,3829.5,2946.8,3768.2,2889.3z"/> <path class="st1" d="M578.9,1336.6c-5.8-5-11.5-9.9-17.4-14.6c-6.7-5.3-13.4-10.5-20.1-15.4c-3.4-2.5-6.3-5.3-8.9-8.3 c-0.9-1-1.5-2.1-2.2-3.2c-1.6-2.1-3.1-4.2-4.3-6.4c-0.7-1.3-1.2-2.7-1.7-4.1c-0.9-2.1-1.8-4.2-2.3-6.3c-0.4-1.5-0.6-3-0.8-4.6 c-0.4-2.1-0.7-4.2-0.8-6.3c0-0.6-0.2-1.1-0.2-1.7v278.9c0,15.3,7.3,30.6,21.4,40.9c28.6,20.9,58.7,46.4,82.5,75.4v0v-78.8v-200.1 C610.5,1365.7,595,1350.6,578.9,1336.6z"/> <path class="st1" d="M3845.6,3099.9c-0.3,2.5-0.9,5-1.3,7.5c-1.4,9-3.4,17.9-5.8,26.7c-0.9,3.1-1.7,6.2-2.7,9.2 c-3.5,11-7.5,21.8-12.6,32.3c-13.2,27.1-31.3,52.4-55.1,74.7l-372.9,350.4l-11.5,11l-57.7,54l-9.5,9.2l-211.6,198.6l-9.5,9 l-57.7,54.3l-11.5,10.8l-372.9,350.4c-23.7,22.3-50.9,39.3-79.5,51.7c-35.8,15.3-74.4,22.9-113,22.9c-27.2,0-54.3-3.9-80.4-11.5 c-15.6-4.5-30.9-10.3-45.7-17.6c-23.7-11.7-45.9-26.8-65.8-45.6l-59.2-55.6v44.2v234.7l59.2,55.6c53,49.8,122.4,74.6,191.9,74.6 c38.6,0,77.1-7.6,113-22.9c28.6-12.4,55.8-29.4,79.5-51.7l372.9-350.4l11.5-10.8l41.3-38.8l-41.3-38.7v-93l57.7-54.3l9.5-9 l211.6-198.6l9.5-9.2l57.7-54l90.6,85.1l293.8-276.1c23.7-22.3,41.8-47.6,55.1-74.7c16.2-33.6,24.4-69.9,24.4-106.1v-278.9 C3847.7,3079.7,3846.9,3089.8,3845.6,3099.9z"/> <g> <path class="st8" d="M664.5,1344c-23.7-27.6-52.8-52.4-80.5-72.7c-1.9-1.4-3.4-3.1-5.1-4.7c-11.1-10.3-17.2-23.8-17.4-37.7 c0-2.1,0.4-4.2,0.6-6.3c0.2-1.5,0.2-3,0.5-4.5c0.4-2.1,1.2-4.1,1.9-6.1c0.5-1.4,0.7-2.8,1.3-4.2c1-2.2,2.3-4.4,3.6-6.5 c0.6-1,1.1-2.2,1.8-3.2c2.2-3.1,4.7-6.1,7.7-8.8l-42.8,40.5c-11.2,10.4-16.2,24.1-15.8,37.6c0.1,2.1,0.4,4.2,0.8,6.3 c0.3,1.5,0.4,3.1,0.8,4.6c0.6,2.2,1.5,4.3,2.3,6.3c0.6,1.4,1,2.8,1.7,4.1c1.2,2.2,2.7,4.3,4.3,6.4c0.8,1,1.4,2.2,2.2,3.2 c2.6,3,5.5,5.8,8.9,8.3c6.6,4.9,13.4,10,20.1,15.4c5.8,4.7,11.6,9.6,17.4,14.6c16.1,14,31.6,29.1,45,45.5L664.5,1344z"/> <path class="st8" d="M792.3,2018.6c0.3-2.7,1-5.3,1.6-8c0.4-1.9,0.6-3.7,1.1-5.6c0.3-1,0.7-2,1.1-3.1c0.6-1.9,1.2-3.7,1.9-5.6 c0.6-1.5,0.9-3,1.6-4.5c1.8-4.3,4-8.5,6.4-12.6c12.2-20.5,25.9-50.6,31.6-88.1c0,0,0,0,0,0l0,0l-51.4-48.1v35.8 c-2.8,34.2-13.5,62.6-24.3,83.3c-1.9,3.6-3.7,7-5.5,10.1c-7,11.7-10.9,24.6-12.3,37.8c-0.4,3.7-0.8,7.5-0.8,11.3 c0.1,6.2,0.6,12.4,1.9,18.5c1.4,7.2,2.9,15.4,4.4,24c0.4,2.5,0.8,5.1,1.3,7.7c1.1,6.7,2.1,13.7,3.1,20.9c0.4,3,0.8,5.8,1.2,8.8 c1.2,10,2.3,20.1,3.1,30.4c0,0.5,0,1,0.1,1.5c0.7,9.7,1,19.3,1.1,28.9c0.2,23.6-1.5,46.4-6.7,65.7c-2.3,8.6-5.7,16.8-9.5,24.8 c-19.2,40.4-54.6,73.5-80.8,93.6c-15.2,11.7-22.8,30.6-18.4,48.5c-0.8-3.4-1.2-6.9-1.2-10.3v56.7c-4.3,18.3-13.3,40.1-30.1,66 l33.5,31.5l5.4,5.1c16-25.9,24.7-47.9,28.9-66.3c0,0,0,0,0,0c2.3-10,3.3-19,3.3-26.9c0-7.5-0.8-14-2.1-19.6 c-0.8-3.6-1.2-7.3-1.2-10.9c0.2-15.6,8.2-30.6,21.5-41.1c14.1-10.8,30.6-25.3,46.3-42.2c3.8-4.1,7.5-8.3,11.2-12.7 c12.5-15.2,23.8-32.1,31.9-50.4c3.2-7.1,5.9-14.4,8-21.9c5.6-20.3,7.9-44.2,7.9-68.8c0-7.1-0.4-14.3-0.7-21.5 c-0.2-4.9-0.2-9.8-0.5-14.7c-0.2-2.2-0.4-4.3-0.6-6.6c-0.4-4.8-0.9-9.5-1.3-14.2c-0.5-4.7-0.8-9.5-1.3-14 c-0.9-7.4-1.9-14.3-3-21.2c-0.5-3.6-1-7.6-1.6-11.1c-1.6-10.2-3.3-19.7-5-28.2c-1.2-6.2-1.8-12.4-1.8-18.6c0-2.7,0.3-5.4,0.5-8.2 C792,2022.7,792,2020.6,792.3,2018.6z"/> <polygon class="st8" points="3981,4334.5 3981,4334.5 3981,4334.5 "/> <path class="st8" d="M3474.4,3805.5l-90.6-85.1l-57.7,54l90.7,85.2l380.3,357.4c26.5,24.9,39.8,57.7,39.8,90.4 c0,15.8-3.3,31.6-9.5,46.5c-6.6,16-16.6,31-30.4,43.9l-38.4,36.1c-26.5,24.9-61.4,37.4-96.2,37.4c-34.8,0-69.6-12.5-96.2-37.4 l-380.2-357.3l-90.8-85.3l-57.7,54.3l90.8,85.2l61.6,57.8l405.2,380.7c26.7,25.1,61.7,37.5,96.6,37.5 c34.5-0.2,69.2-12.6,95.7-37.5l153.7-144.4c6.6-6.2,12.4-13,17.4-20c14.9-21.3,22.4-45.8,22.4-70.3c0-32.7-13.3-65.4-39.8-90.4 L3474.4,3805.5z"/> </g> <g> <path class="st9" d="M3566.4,4433.8c26.5,24.9,61.4,37.4,96.2,37.4c34.8,0,69.6-12.5,96.2-37.4l38.4-36.1 c13.7-12.9,23.7-27.9,30.4-43.9c6.2-14.9,9.5-30.7,9.5-46.5c0-32.7-13.3-65.4-39.8-90.4l-380.3-357.4l-90.7-85.2l-9.5,9.2 l-211.6,198.6l-9.5,9l90.8,85.3L3566.4,4433.8z"/> <path class="st9" d="M3975.6,4370.1c-0.1,0.2-0.1,0.5-0.2,0.7c-1.4,4.5-3.3,8.8-5.3,13.2c-0.6,1.4-1,2.9-1.7,4.3 c-2.8,5.7-6.1,11.2-9.8,16.5c-5,7.1-10.8,13.8-17.4,20l-153.7,144.4c-26.4,24.8-61.2,37.2-95.7,37.5c-35,0-70-12.4-96.6-37.5 l-405.2-380.7l-61.6-57.8l-90.8-85.2v93l41.3,38.7l111.2,104.3l405.2,380.7c26.7,25.1,61.7,37.5,96.6,37.5 c34.5-0.2,69.2-12.6,95.7-37.5l153.7-144.4c26.5-24.9,39.8-57.7,39.8-90.4v-93v0C3981,4346.5,3979.2,4358.5,3975.6,4370.1z"/> </g> </g> </svg>