<?xml version="1.0" encoding="utf-8"?>
<!-- Svg Vector Icons : http://www.onlinewebfonts.com/icon -->
<!DOCTYPE svg PUBLIC "-//W3C//DTD SVG 1.1//EN" "http://www.w3.org/Graphics/SVG/1.1/DTD/svg11.dtd">
<svg version="1.1" xmlns="http://www.w3.org/2000/svg" xmlns:xlink="http://www.w3.org/1999/xlink" x="0px" y="0px" viewBox="0 0 1000 1000" enable-background="new 0 0 1000 1000" xml:space="preserve">
<metadata> Svg Vector Icons : http://www.onlinewebfonts.com/icon </metadata>
<g><path d="M715.9,424.2c-18.2-33.3-52.9-67.9-99.8-84.8c-46.4-17.4-104.7-16-153.5,10.3c-49.9,24.7-85.2,80.2-84.9,136.3c-0.7,55.5,30.1,110.2,77.6,131.4c46.7,21.9,98.5,10.9,128.6-13.6c32.3-24.8,40.9-59.6,40.8-80.5c-0.3-39.2-21.3-74.5-52.8-88.1c-30.7-13.6-65.4-7.1-87.1,12.8c-23,19.8-27.9,54.2-13.9,78.8c12.2,26.4,49.8,36.3,72.7,17.6c-26.2,14.1-55.5-1.1-61.8-22.8c-8.3-21.3-0.7-45.6,16.3-57.4c34.6-28,98.6-3.4,97.8,58.7c0,15.2-6.3,40.3-29.7,58.1c-22.6,18.6-62.9,27.2-98.9,10.3c-36-15.6-61.3-59.5-60.9-104.9c0.1-45.9,27.9-90.3,69.6-111.2c41.3-22.3,90.7-23.5,130.1-8.8c39.9,14.5,68.9,43.1,84.9,72.3c34.9,59.1,22.8,104.8,23.7,103.7c-0.2-1.1-1,45.4-47.1,96.2c-43.8,48.5-135.9,104.2-229.3,72.5c-89-29.9-167.9-121.6-159.7-206.4c3.3-86.4,53.1-145.4,77.7-167.6c47.6-43.3,99-58.2,146.9-58c48.4,0.4,94.8,14.1,145.3,40.5c-45.5-34.1-91.4-56-144.3-61.6c-52.3-5.5-113.6,8.9-167.4,57.9c-27.9,25.3-83.1,90-87.1,187.7c-3.2,47.3,14.7,103.4,49.9,142.6c33,40.7,77.6,76.6,130,92.3c52,17.1,108.1,11.4,153-6.9C627.6,712.8,663.4,686,689,658c52.3-57.2,54.3-113.6,54.3-112.1C742.4,547.6,755.9,491.4,715.9,424.2z"/><path d="M858.7,141.3c0,0-48.5,22.6-92.4,66.5c-43.9,43.9-66.5,92.4-66.5,92.4s48.5-22.7,92.4-66.5C836.1,189.8,858.7,141.3,858.7,141.3z"/><path d="M141.3,858.7c0,0,48.5-22.7,92.4-66.5c43.9-43.9,66.5-92.4,66.5-92.4s-48.5,22.6-92.4,66.5C164,810.2,141.3,858.7,141.3,858.7z"/><path d="M886.2,415.4c59.9-16.1,103.8-46.7,103.8-46.7s-53.3-4.6-113.3,11.4c-59.9,16.1-103.8,46.7-103.8,46.7S826.3,431.5,886.2,415.4z"/><path d="M113.8,584.6C53.9,600.6,10,631.3,10,631.3s53.3,4.6,113.3-11.4c60-16.1,103.8-46.7,103.8-46.7S173.8,568.5,113.8,584.6z"/><path d="M772.9,573.1c0,0,43.9,30.7,103.8,46.7c60,16.1,113.3,11.4,113.3,11.4s-43.9-30.7-103.8-46.7C826.3,568.5,772.9,573.1,772.9,573.1z"/><path d="M227.1,426.9c0,0-43.9-30.7-103.8-46.7C63.3,364.1,10,368.7,10,368.7s43.9,30.7,103.8,46.7C173.8,431.5,227.1,426.9,227.1,426.9z"/><path d="M699.8,699.8c0,0,22.7,48.5,66.5,92.4c43.9,43.9,92.4,66.5,92.4,66.5s-22.7-48.5-66.5-92.4C748.3,722.4,699.8,699.8,699.8,699.8z"/><path d="M300.2,300.2c0,0-22.6-48.5-66.5-92.4c-43.9-43.9-92.4-66.5-92.4-66.5s22.6,48.5,66.5,92.4C251.7,277.5,300.2,300.2,300.2,300.2z"/><path d="M573.1,772.9c0,0-4.6,53.3,11.4,113.3c16.1,59.9,46.7,103.8,46.7,103.8s4.6-53.3-11.4-113.3C603.8,816.8,573.1,772.9,573.1,772.9z"/><path d="M426.9,227.1c0,0,4.6-53.3-11.4-113.3C399.4,53.9,368.7,10,368.7,10s-4.6,53.3,11.4,113.3C396.2,183.2,426.9,227.1,426.9,227.1z"/><path d="M380.1,876.7c-16.1,60-11.4,113.3-11.4,113.3s30.7-43.9,46.7-103.8c16.1-60,11.4-113.3,11.4-113.3S396.2,816.8,380.1,876.7z"/><path d="M619.9,123.3C635.9,63.3,631.3,10,631.3,10s-30.7,43.9-46.7,103.8c-16.1,59.9-11.4,113.3-11.4,113.3S603.8,183.2,619.9,123.3z"/></g>
</svg>