<?xml version="1.0" encoding="UTF-8" standalone="no"?>
<svg
   xmlns:dc="http://purl.org/dc/elements/1.1/"
   xmlns:cc="http://creativecommons.org/ns#"
   xmlns:rdf="http://www.w3.org/1999/02/22-rdf-syntax-ns#"
   xmlns:svg="http://www.w3.org/2000/svg"
   xmlns="http://www.w3.org/2000/svg"
   xmlns:sodipodi="http://sodipodi.sourceforge.net/DTD/sodipodi-0.dtd"
   xmlns:inkscape="http://www.inkscape.org/namespaces/inkscape"
   version="1.1"
   id="svg10"
   xml:space="preserve"
   width="200"
   height="140"
   viewBox="0 0 199.99998 140"
   sodipodi:docname="arrow.svg"
   inkscape:version="1.0.2 (e86c870879, 2021-01-15, custom)"><metadata
     id="metadata16"><rdf:RDF><cc:Work
         rdf:about=""><dc:format>image/svg+xml</dc:format><dc:type
           rdf:resource="http://purl.org/dc/dcmitype/StillImage" /><dc:title></dc:title></cc:Work></rdf:RDF></metadata><defs
     id="defs14"><clipPath
       clipPathUnits="userSpaceOnUse"
       id="clipPath26"><path
         d="M 0,812.627 H 1155.842 V 0 H 0 Z"
         id="path24" /></clipPath></defs><sodipodi:namedview
     pagecolor="#ffffff"
     bordercolor="#666666"
     borderopacity="1"
     objecttolerance="10"
     gridtolerance="10"
     guidetolerance="10"
     inkscape:pageopacity="0"
     inkscape:pageshadow="2"
     inkscape:window-width="1920"
     inkscape:window-height="1017"
     id="namedview12"
     showgrid="false"
     units="px"
     width="298mm"
     inkscape:zoom="0.7632653"
     inkscape:cx="566.17497"
     inkscape:cy="436.93851"
     inkscape:window-x="-8"
     inkscape:window-y="-8"
     inkscape:window-maximized="1"
     inkscape:current-layer="g20" /><g
     id="g18"
     inkscape:groupmode="layer"
     inkscape:label="arrows-4838669"
     transform="matrix(1.3333333,0,0,-1.3333333,0,1083.5027)"><g
       id="g20"><g
         id="g22"
         clip-path="url(#clipPath26)"
         transform="matrix(0,-1.0077988,0.99142421,0,-444.41902,1309.3617)"><g
           id="g1040"
           transform="translate(523.46898,534.97549)"><path
             d="m 0,0 -29.355,-41.425 28.877,-41.762 v 21.388 c 0,0 60.621,-24.446 69.689,48.894 C 62.529,-20.373 26.253,-47.877 0,-20.373 Z"
             style="fill:#333333;fill-opacity:1;fill-rule:nonzero;stroke:none"
             id="path1042" /></g><g
           id="g1044"
           transform="translate(495.25658,493.53999)"><path
             d="m 0,0 26.925,-38.938 v 20.098 l 1.031,-0.415 c 0.299,-0.12 30.17,-11.844 50.576,6.375 9.178,8.194 15.132,21.244 17.716,38.815 -9.474,-8.874 -43.287,-32.231 -68.516,-5.8 l -0.329,0.344 V 38.67 Z M 28.544,-44.565 -2.286,0.021 29.022,44.201 V 21.648 c 26.227,-26.932 61.93,1.115 67.901,7.789 l 1.665,1.86 -0.367,-2.966 C 95.79,8.671 89.453,-5.854 79.387,-14.837 c -18.836,-16.81 -45.32,-8.921 -50.843,-7.01 z"
             style="fill:#231f20;fill-opacity:1;fill-rule:nonzero;stroke:none"
             id="path1046" /></g><g
           id="g1048"
           transform="translate(592.67998,522.07019)"><path
             d="m 0,0 c -4.773,-6.51 -23.182,-18.235 -35.635,-18.751 0,0 20.599,26.9 8.428,87 L -10.978,43.804 0.716,75.382 C 0.716,75.382 7.875,47.876 0,0"
             style="fill:#000000;fill-opacity:1;fill-rule:nonzero;stroke:none"
             id="path1050" /></g><g
           id="g1052"
           transform="translate(567.10428,586.18449)"><path
             d="m 0,0 c 8.644,-47.859 -3.783,-74.168 -8.117,-81.542 11.686,1.507 28.149,11.764 32.96,18.03 6.284,38.483 2.731,63.855 1.243,71.752 L 14.787,-22.272 Z m -12.2,-84.106 1.592,2.089 c 0.202,0.265 20.073,27.199 8.198,85.833 l 1.367,1.111 15.453,-23.275 12.011,32.436 0.631,-2.421 c 0.072,-0.278 7.152,-28.382 -0.688,-76.043 l -0.054,-0.333 -0.174,-0.236 C 21.01,-71.937 2.375,-83.503 -10.036,-84.017 Z"
             style="fill:#231f20;fill-opacity:1;fill-rule:nonzero;stroke:none"
             id="path1054" /></g></g></g></g></svg>
