<?xml version="1.0" encoding="UTF-8"?>
<svg viewBox="0 0 100 100" xmlns="http://www.w3.org/2000/svg">
 <defs>
  <linearGradient id="a" x1=".92143" x2=".02143" y1=".74219" y2=".17188">
   <stop stop-color="#b1f3f3" offset="0"/>
   <stop stop-color="#fff" offset=".2832"/>
   <stop stop-color="#e2ffff" offset=".43083"/>
   <stop stop-color="#fff" offset=".69532"/>
   <stop stop-color="#bdffff" offset="1"/>
  </linearGradient>
 </defs>
 <path d="m71.5 4.5938-3.0312 5.0625-1.5938-3.5312-3.4062 1.5625 2.6875 5.875-4.8438 8.125-1.7812-4.3125 2.0312-2.1875-2.75-2.5625-0.875 0.9375-0.59375-1.4375-3.4688 1.4062 0.46875 1.1562-0.8125-0.125-0.625 3.7188 3.1562 0.5 2.8438 6.9375-3.0938 5.1875-0.4375-1.0938-3.5 1.3438 1.5 3.8438-3.3125 5.5312-2.4688-4.3125 2.4688-4.1875-3.2188-1.9062-1.4062 2.375-2.9062-5.0625 4.875-8.0312 3.9375-0.21875-0.21875-3.75-1.375 0.0625 1.375-2.25-3.2188-1.9375-1.5 2.4688-0.6875-1.1875-3.25 1.875 1.6875 3-3.7812 6.25-5.5625-9.6875 2.625-6.0312-3.4062-1.5-1.5312 3.5312-2.6562-4.5938c-1.0833 0.625-2.1667 1.25-3.25 1.875l2.9375 5.0938-3.875-0.3125-0.28125 3.7188 6.4375 0.53125 4.7188 8.1875-4.625-0.53125-0.9375-2.875-3.5625 1.1562 0.40625 1.25-1.5625-0.1875-0.4375 3.7188 1.25 0.15625-0.53125 0.65625 2.9062 2.3438 2-2.5 7.4375 0.875 3 5.2188-1.1562-0.15625-0.5 3.7188 4.0312 0.5625 3.4062 5.9375-5.3125-0.0625-2.375-4.25-3.2812 1.8125 1.3125 2.375-5.8125-0.03125-4.4688-8.25 1.8125-3.5312-3.3438-1.7188-0.625 1.2188-1.25-2.3125-3.3125 1.7812 1.4062 2.5625h-1.4062l-0.03125 3.75 3.4688 0.03125 3.4688 6.4375-11.188-0.09375-3.875-5.3125-3.0312 2.1875 2.25 3.0938-5.2812-0.03125-0.03125 3.75 5.9062 0.03125-2.25 3.1875 3.0625 2.1562 3.7188-5.2812 9.4688 0.0625-2.8125 3.7188-2.9375-0.65625-0.8125 3.6562 1.25 0.28125-0.9375 1.25 2.9688 2.2812 0.75-1 0.3125 0.78125 3.5312-1.3438-1.1562-2.9688 4.5312-5.9688 6.0312 0.0625-0.71875 0.90625 2.9375 2.3438 2.5312-3.2188 4.875 0.03125-2.875 5.125h-4.875v3.75h2.75l-2.875 5.0938-9.4062-0.09375-2.1875-3.2812-3.125 2.0625 0.75 1.1562-2.625-0.03125-0.03125 3.75 2.9062 0.03125-0.6875 1.2188 3.25 1.8438 1.7188-3.0312 7.3438 0.09375-5.5 9.75-6.5625 0.78125 0.46875 3.7188 3.8125-0.46875-2.5938 4.625 3.25 1.8438 2.9062-5.125 1.6562 3.4688 3.375-1.625-2.8125-5.8125 4.625-8.2188 1.9062 4.25-2 2.25 2.8125 2.4688 0.84375-0.96875 0.65625 1.4688 3.4375-1.5312-0.5-1.1562 0.8125 0.125 0.53125-3.7188-3.1562-0.46875-3.0312-6.8125 2.9688-5.2812 0.46875 1.0938 3.4688-1.4375-1.5938-3.7812 3.0312-5.3438 2.9062 5.0312-2.1875 3.8438 3.25 1.8438 1.125-1.9375 2.9375 5.0938-4.4688 7.5938-3.9375 0.28125 0.25 3.7188 1.4062-0.09375-1.375 2.3125 3.25 1.875 1.4688-2.5 0.71875 1.1875 3.2188-1.9062-1.75-3 3.375-5.7188 5.6875 9.8438-2.2188 5.25 3.4688 1.4688 1.125-2.6562 1.9062 3.3125 3.25-1.9062-2.75-4.7812 4.7188 0.34375 0.28125-3.75-7.0625-0.46875c-0.06234-0.00626-0.12492 0-0.1875 0l-4.75-8.1875 5.3438 0.5625 0.9375 2.875 3.5625-1.2188-0.40625-1.2188 1.5625 0.15625 0.40625-3.7188-1.2812-0.125 0.53125-0.6875-2.9688-2.3125-1.9688 2.5312-8.0312-0.84375-3-5.1875 1.6875 0.21875 0.46875-3.7188-4.5312-0.59375-2.8125-4.875 5.5625-0.125 2.5 4.1562 3.2188-1.9062-1.4062-2.375 5.8438-0.125 4.7188 8.125-1.7188 3.5625 3.375 1.625 0.59375-1.2812 1.3438 2.3125 3.25-1.875-1.4688-2.5312 1.375-0.03125-0.0625-3.75-3.4688 0.0625-3.6562-6.3125 11.156-0.25 4.0312 5.2188 2.9688-2.2812-2.3438-3.0625 5.2812-0.125-0.09375-3.75-5.8438 0.125 2.125-3.1875-3.1562-2.0625-3.5312 5.375-9.5 0.21875 2.7188-3.7812 2.9688 0.5625 0.6875-3.6875-1.2812-0.25 0.9375-1.2812-3.0625-2.1875-0.75 1.0312-0.3125-0.78125-3.4688 1.4375 1.25 2.9375-4.3438 6.125-6.0625 0.15625 0.71875-0.96875-3-2.25-2.4688 3.3125-6.5 0.15625 3.9062-6.5312 4.8438 0.09375 0.09375-3.75-2.7188-0.0625 3-5 9.375 0.34375 2.0938 3.3125 3.1875-2-0.71875-1.1562 2.625 0.09375 0.125-3.75-2.9375-0.09375 0.71875-1.1875-3.1875-1.9688-1.7812 3-7.3125-0.28125 5.7188-9.5938 6.5625-0.625-0.34375-3.75-3.8438 0.375 2.7188-4.5312-3.2188-1.9375z" fill="url(#a)" fill-rule="evenodd" stroke="#000" stroke-linejoin="round" stroke-width="1.25"/>
</svg>
